<svg xmlns="http://www.w3.org/2000/svg" id="Layer_1" viewBox="0 0 2048 512" width="2048" height="512">
  <style>
    .st0{fill:#81C353;} .st1{fill:#8AC757;} .st2{fill:#8FC958;} .st3{fill:#7BBE51;} .st4{fill:#9DD05E;} .st5{fill:#77BA4F;} .st6{fill:#70B34B;} .st7{fill:#93CB5A;} .st8{fill:#74B74D;} .st9{fill:#99CE5C;} .st10{fill:#A5D260;} .st11{fill:#ABD465;}
  </style>
  <path d="M2049 417v22c-3.97-.27-7.9-.17-11.9-.65-13.37-1.6-26.97-2.88-40.17.03-17.42 3.85-34.75 6.54-52.62 4.64-12.7-1.35-25.4-3.66-38.2-3.85-11.6-.16-23.1-2.9-34.7-2.02-10.5.8-21.1 1.9-31.6 2.83-12.2 1.08-24.4 2.08-36.6 3.2-17.3 1.56-34.6 3.28-51.9 4.78-13.5 1.17-27 2-40.6 3.15-17.9 1.6-35.9 3.3-53.9 4.9-12 1.1-24 2.1-36.1 3.1-18.4 1.7-36.9 3.3-55.4 4.9-12.7 1.1-25.4 2.1-38.1 3.2-17.1 1.6-34.2 3.3-51.4 4.8-13.2 1.2-26.4 2.1-39.6 3.2-17.5 1.6-34.9 3.3-52.4 4.8-13.2 1.2-26.4 2.1-39.6 3.2-17.1 1.5-34.2 3.3-51.4 4.8-13.2 1.2-26.4 2.1-39.6 3.2l-52.9 4.8c-13 1.3-26 2.8-39 3.7-9 .7-18.1 2.3-27.1-.5-12.8-4-26.1-5.6-39.5-6.2-9.4-.4-18.7-2.3-28.1-2.5-6.8-.2-11.8-5-18.4-5.5-12.2-.8-24.4-1.9-36.6-3.1-17.1-1.5-34.2-3.8-51.4-4.6-18.7-.9-36.9-5.4-55.6-6.6-13.7-.9-27.2-2.9-41-1.4-16.7 1.9-33.5 3.8-50.4 4.8-25.3 1.6-50.9.3-75.5 8.2-12.9 4.2-25.9 4.6-39.3 3.1-16.8-1.8-33.7-2.8-50.5-4.2-18.3-1.5-36.6-3.2-54.9-4.8-12.8-1.1-25.7-2-38.6-3.2-16.8-1.5-33.6-3.3-50.4-4.8-13.3-1.2-26.7-2-40.1-3.1-18.1-1.5-36.2-3.3-54.4-4.8-12.5-1.1-25.1-2-37.6-3.1-17.8-1.6-35.6-3.3-53.4-4.8-12.5-1.1-25.1-1.9-37.6-3.1-19.6-1.9-39.2-5-58.8-4.4-12 .4-24.2-1.2-36.1.8-7.9 1.3-16 1.1-24 3.2-12.6 3.3-25.8 4.4-38.9 3.5-18-1.3-35.9-3.2-53.9-4.8-13.7-1.2-27.6-1.8-41.3-3.6-9-1.2-17.6-2.5-26.4-2.5v-23c15-.4 29.4 4 44.3 5 16.7 1.2 33.5 1.6 49.9 4.3 20 3.3 39.3-.6 58.6-3 13.3-1.7 26.6-3.6 39.9-4.2 9.4-.4 18.9.5 28.4.8 0 .8 0 1.6.1 2.5.3 1.7-.7 4.5 1.5 4.6 2.4 0 1.4-2.8 1.6-4.5.2-1.3-.2-2.7 1-3.7 1.1 2.8 4.7 1.8 6 4.1l-1.1 4-1 2-1 1-.2.4.3-.4 1-1c.3-.6.7-1.3 1-2 3.2-.2 3.2-4.3 5.9-5.1 3.8.2 7.8-.7 11 2.1 1.5 6.9 2.7-1.6 4.1 0 2.6.3 5.2.8 7.9 1 13.4 1.1 26.8 2 40.1 3.2 20.9 1.9 41.9 3.9 62.8 5.8 13 1.1 26.1 2 39.1 3.2 17.3 1.5 34.6 3.3 51.9 4.8 16.7 1.5 33.3 2.7 50 4.2 18.2 1.5 36.3 3.2 54.4 4.8 12.9 1.1 25.7 2 38.6 3.2 17.6 1.6 35.3 3.2 52.9 4.9 13.5 1.3 27 2.8 40.5 3.7 10.4.7 20.7 1.5 31.3.7 12.1-.9 23.6-5.1 35.7-5.5 21.6-.5 42.7-5 64.2-6.1 22.6-1.2 45-6.5 67.8-3.8 14 1.7 29-1 41.8 7.9 1.4 1 3.8.8 5.8 1 8.7.8 17.4 1.4 26.2 2.2l54.3 4.8c9.6.9 19.1 2.1 28.7 2.7 11.4.8 22.4 4.5 33.9 4.5 9.1 0 18.1 2.3 27.2 2.4 10.5.2 20.1 3.9 30.1 5.8 8.6 1.6 16.8.1 25.1-.5 13.5-.9 27.1-1.9 40.6-3.1 21.1-2 42.1-4.7 63.4-4.9 2.1 2 4.1 4.2 6.3 6 .9.7 2 2.6 3.2 1.2 1-1.1-1.1-2-1.4-3.3 5.5-5.3 12.8-2.3 19-4l1.5 1.9c.9 1.2 1 3.4 3.1 3.1.4 0 .3-2.6.5-4 .1-.6 0-1.3 0-1.9l7.9-2.1c.3 1.2.4 3.2.9 3.3 1.7.4.9-1.4 1.3-2.3 2.6-1.1 5.2-1 7.8 0 0 .7-.1 1.3 0 2 .2 1.3-.7 3.6 1.4 3.6 2.5.1 1.5-2.3 1.6-3.7.2-2.6.1-5.2.1-7.8 2.1-.3 4.2-.8 6.4-1 12.5-1.1 25-2.1 37.6-3.2 17.1-1.6 34.2-3.3 51.3-4.8 13.2-1.2 26.4-2 39.6-3.2 17.6-1.5 35.2-3.2 52.8-4.8 12.7-1.1 25.4-2.1 38.1-3.2 17.6-1.5 35.2-3.3 52.9-4.8 13-1.1 26-2 39-3.2 17.6-1.5 35.2-3.3 52.8-4.8 13-1.1 26.1-1.9 39.1-3.2 19.1-2 38.2-3.9 57.4-4.8l6 6 .5.2-.4-.3-1.1-4.9c3.1-3 7.6-1 11-3 2.7 2 3.3 6.1 7 7.1l1.1 2 1 1 .5.2-.4-.3-1-1-1-2-3-5.95 8.9-1c.4 2.44-.8 6.9 1.7 6.8 2.7-.1.8-4.4 1.3-6.82.1-.3 0-.6 0-1 13.2-1.3 26.3-2.7 39.5-3.8 8.7-.8 17.5-2 26.2-1.8 9.7.1 19.4 1.6 29.1 2.7 14.3 1.5 28.6 3.4 42.9 4.6 8.6.7 17.2 2.2 25.9 1.2 22.4-2.7 44.7-6.8 67.4-5.85z" class="st0"/>
  <path d="M1305.87 468.97c-2.64.7-5.27 1.37-7.9 2.06-3.66-1.2-3.13-5.7-5.95-7.6-1.06-.7-1.97-2.7-3.12-1.95-1.65 1.1.47 2.17.9 3.25 1 2.45 2.1 4.85 3.17 7.27-6.25 1.68-13.47-1.28-18.98 3.96-1.8-1.95-3.5-4.04-5.4-5.8-2-1.86-3.4-4.55-6.3-5.38-.6 3.28 2.5 4.7 3.5 7.22-21.3.17-42.3 2.93-63.4 4.86-13.6 1.24-27.1 2.22-40.6 3.1-8.4.56-16.5 2.1-25.1.46-10-1.9-19.7-5.6-30.1-5.78-9.1-.17-18.1-2.42-27.1-2.44-11.6-.03-22.6-3.68-34-4.47-9.6-.66-19.1-1.84-28.7-2.7-18.1-1.66-36.3-3.27-54.4-4.86-8.7-.77-17.5-1.4-26.2-2.18-2-.2-4.3-.1-5.8-1.1-12.8-8.9-27.7-6.2-41.8-7.9-22.8-2.8-45.2 2.6-67.7 3.7-21.5 1.1-42.7 5.6-64.2 6.1-12.1.3-23.6 4.5-35.7 5.4-10.6.8-20.9-.1-31.3-.7-13.6-.9-27-2.5-40.5-3.8-17.7-1.7-35.3-3.3-52.9-4.9-12.9-1.1-25.8-2.1-38.6-3.2-18.2-1.6-36.3-3.3-54.4-4.9-16.7-1.5-33.4-2.7-50-4.2-17.3-1.6-34.6-3.3-51.9-4.8-13-1.2-26.1-2.1-39.1-3.2-20.9-1.9-41.8-3.9-62.8-5.8-13.4-1.2-26.8-2.2-40.1-3.3-2.7-.3-5.3-.7-7.9-1 .2-1.3 2.4-2.2 1.3-3.3-1.4-1.3-2.1.8-3.1 1.5-.8.5-1.5 1.2-2.3 1.8-3.3-2.8-7.2-1.9-11-2.1.6-1.1 1.2-2.2 1.9-3.4.7-1.3 2.9-2.8 1.2-4.1-1.2-.9-2.3 1.3-3.1 2.5-1.6 2.1-2.5 4.7-5 6-1.4-2.3-5-1.3-6-4-.3-1.5.9-4-1-4.3-2.4-.5-1.8 2.5-2.7 3.9-.3.4-.2.9-.3 1.4-9.5-.4-18.9-1.3-28.4-.9-13.4.6-26.6 2.5-39.9 4.2-19.4 2.4-38.7 6.3-58.6 3-16.4-2.8-33.2-3.2-49.9-4.3-14.8-1-29.2-5.5-44.2-5.1v-16c4.9-.1 9.9-.7 14.8-.1 12.3 1.5 24.5 3.6 37 4.2 13.2.7 26.3 2.5 39.5 3.7 7.3.7 14.4 3.6 22.1 1.2 8.2-2.5 16.4-5.6 25.4-5.5 5.7.1 11.4 1.5 17.2-.4 13.2-4.5 27.2-5.4 40.8-3.7 18.5 2.3 37.1 3.9 55.7 5.6 12.7 1.1 25.4 2 38.1 3.1 17.6 1.6 35.2 3.3 52.9 4.9 12.7 1.1 25.4 2 38.1 3.1 18.1 1.5 36.2 3.2 54.4 4.8 12.5 1.1 25 2 37.6 3.1 17.6 1.6 35.2 3.3 52.9 4.8 12.7 1.1 25.4 2 38.1 3.1 17.6 1.6 35.3 3.3 52.9 4.9 12.7 1.1 25.4 2 38.1 3.1 17.5 1.5 34.9 3.4 52.4 4.8 20.8 1.7 40.4-6.3 60.9-7.8 9.8-.7 19.5-3.5 29.4-4.1 13.3-.9 26.9-1.2 40.1-3.3 22.6-3.6 45.1-3.2 67.6-.5 5.9.7 13-1.4 17.5 2.5 6.5 5.7 14 6.2 21.6 7 6.1.6 12.3.8 18.4 1.3 18.3 1.6 36.6 3.3 54.9 4.9 12.4 1.1 24.9 1.2 37 3.6 12.6 2.5 25.3 2.9 37.9 4.4 9.8 1.2 19.8 1.6 29.4 4.4 9.1 2.7 18.4 4.3 28 3.5 6.3-.6 12.5-1.3 18.8-1.8 13-1.1 26.1-2.1 39.1-3.2 17.4-1.5 34.9-3.3 52.4-4.8 12.5-1.1 25-2.1 37.6-3.2 18-1.5 35.9-3.2 53.9-4.8 12.3-1.1 24.7-2.1 37.1-3.1 18-1.6 35.9-3.3 53.9-4.8 13-1.1 26.1-2.1 39.1-3.2 17.3-1.5 34.6-3.3 51.9-4.8 16.7-1.5 33.3-2.7 50-4.2 18.1-1.6 36.2-3.3 54.4-4.8 12.5-1.1 25.1-2 37.6-3.1 18-1.6 35.9-3.3 53.9-4.8 12.4-1.1 24.7-2.1 37.1-3.2 18.1-1.6 36.3-3.2 54.4-4.9 13.7-1.2 27.3-2.7 41-3.8 10.4-.9 20.7-2 31.2-.4 12.8 1.9 25.7 2.9 38.5 4.2l38.5 3.9c10.8 1 21.6 1.1 32.2-.4 14.8-2.1 29.6-3.7 44.5-4.5v14c-22.7-1-45 3.1-67.4 5.8-8.7 1-17.3-.5-25.8-1.2-14.3-1.2-28.6-3.1-42.9-4.6-9.7-1.1-19.4-2.5-29.2-2.7-8.7-.2-17.5 1-26.2 1.8-13.2 1.2-26.3 2.5-39.5 3.8-1.3-1.3-.5-5-3.1-4.3-2.3.6.5 3.1 0 4.8-.1.1-.1.3-.1.5l-8.9 1-3.2-4.4c-.8-1-1.7-2.8-3-2-1.6 1 .2 2.3.7 3.4.3.7.9 1.4 1.3 2.1-3.4 2-7.9-.1-11 3-1.2-1.1-2.3-2.1-3.6-3.1-.6-.6-1.4-1.1-1.9-.2-.2.5.3 1.4.6 2.2-19.2.9-38.3 2.8-57.3 4.8-13 1.3-26.1 2.1-39.1 3.2-17.6 1.5-35.2 3.3-52.8 4.8-13.1 1.1-26.1 2-39.1 3.1-17.6 1.6-35.2 3.3-52.9 4.8-12.7 1.1-25.4 2.1-38.1 3.2-17.6 1.6-35.2 3.3-52.9 4.8-13.2 1.1-26.4 2-39.6 3.2-17.1 1.5-34.2 3.2-51.4 4.8-12.6 1.1-25.1 2.1-37.6 3.2-2.2.2-4.3.6-6.4.9-3.2.9-1.2 4.4-3.1 6-2.6-1.08-5.3-1.1-7.9-.1-.5-1.7 1-4.7-1.2-5.1-1.7-.2-.6 2.7-1.1 4.1zm-1050.5-50.25l-.15.35.53.05c-.02-.12-.02-.27-.1-.36-.03-.05-.2-.03-.3-.04z" class="st1"/>
  <path d="M2049 403c-14.88.82-29.66 2.44-44.43 4.5-10.64 1.5-21.45 1.4-32.2.36-12.83-1.25-25.67-2.54-38.5-3.87-12.83-1.4-25.72-2.4-38.47-4.3-10.52-1.6-20.87-.5-31.26.4-13.68 1.1-27.34 2.5-41.02 3.8l-54.4 4.8c-12.36 1.1-24.74 2-37.1 3.1l-53.9 4.8c-12.54 1.1-25.08 2-37.62 3.1-18.13 1.5-36.26 3.2-54.4 4.8-16.65 1.4-33.33 2.7-49.98 4.1-17.3 1.5-34.6 3.3-51.9 4.8-13.02 1.1-26.07 2-39.1 3.2-17.98 1.5-35.94 3.2-53.9 4.8-12.37 1.1-24.75 2.1-37.12 3.1l-53.9 4.8c-12.53 1.1-25.07 2-37.6 3.1-17.48 1.5-34.93 3.2-52.4 4.8-13.03 1.1-26.08 2.1-39.12 3.1-6.26.5-12.5 1.3-18.77 1.8-9.5.8-18.9-.8-27.9-3.4-9.6-2.8-19.6-3.2-29.4-4.4-12.6-1.5-25.3-1.9-37.9-4.4-12.1-2.4-24.6-2.6-37-3.7-18.3-1.7-36.6-3.3-54.9-4.9-6.1-.6-12.2-.7-18.3-1.3-7.6-.8-15.1-1.3-21.6-7-4.5-4-11.5-1.9-17.4-2.6-22.5-2.7-45-3.1-67.6.4-13.2 2.1-26.7 2.3-40.1 3.2-9.9.7-19.6 3.5-29.4 4.2-20.5 1.5-40.1 9.5-60.9 7.8-17.5-1.4-34.9-3.2-52.4-4.8-12.7-1.1-25.4-2-38.1-3.2-17.6-1.6-35.2-3.3-52.9-4.9-12.7-1.2-25.4-2.1-38.1-3.2-17.6-1.6-35.2-3.3-52.9-4.9-12.5-1.1-25.1-2-37.6-3.1l-54.4-4.8c-12.7-1.1-25.4-2.1-38.1-3.2-17.6-1.6-35.3-3.3-52.9-4.8-12.7-1.1-25.4-2-38.1-3.2-18.6-1.7-37.2-3.3-55.7-5.6-13.6-1.7-27.6-.8-40.8 3.7-5.8 2-11.5.5-17.1.5-9-.1-17.1 2.9-25.4 5.5-7.6 2.3-14.7-.6-22.1-1.3-13.1-1.2-26.3-3-39.5-3.7-12.5-.6-24.7-2.7-37-4.2-4.9-.6-9.9 0-14.9.1v-13c2.7-.4 5.3-.4 7.9-1.1 7.7-1.9 14.9.9 22.4 1.9 9 1.2 18.1 1.7 27.2 2.2 21.6 1.1 43 7.5 64.9 2.1 8.5-2 17.5-1.4 26.1-2.9 14.7-2.6 29.5-4.6 44.2-4.9 16.6-.3 33.3 2.3 50 3.7 11.7 1 23.4 1.9 35.1 3 17.5 1.6 35 3.3 52.4 4.9 12.9 1.1 25.8 2 38.6 3.1 17.5 1.6 34.9 3.3 52.4 4.9 13.2 1.1 26.4 2 39.6 3.1 18.3 1.6 36.5 3.2 54.8 4.9 13.2 1.2 26.3 2.8 39.5 3.7 8 .5 15.9 2.5 24 1.4h1.1c19.7 3.5 39.7 3.7 59.6 5.9 10 1.1 20 1.9 30.1 2.7 14.2 1.1 28.4 3.4 42.6 2.9 20.5-.6 40.6-5.5 61.1-6.9 18.7-1.2 37.3-3.1 55.9-4.8 9.3-.8 18.5-1.9 27.7-2.8 7.7-.7 15.5-2.4 23.2-1.7 9.5.8 19.1 1.5 28.6 2.7 7.6 1 16.2-.9 22.5 5.9.5.5 1.5.8 2.3.9 21 2 42.1 4.1 63.2 6.1 13 1.2 26.1 2 39.1 3.2 20.1 1.8 40.2 3.7 60.2 5.9 8.4.9 17.2 0 25 3.2 13.8 5.7 27.9 4.7 42.1 3.5 17.2-1.5 34.3-3.2 51.4-4.7 13.4-1.2 26.7-2 40.1-3.2 20.7-1.9 41.5-4 62.2-5.8 16.8-1.5 33.6-2.7 50.5-4.2 22.7-2 45.5-3.7 68.2-6.1 7.5-.8 15.2-.2 22.5-2.8h1c1.6 1.44 3.5 1 5.3.83 13-1 26.1-2 39.1-3.1 11.2-1 22.4-2.1 33.6-3.1 17.6-1.6 35.3-3.3 52.9-4.8 13.3-1.2 26.7-2 40.1-3.2 16.6-1.5 33.2-3.3 49.9-4.8 13.2-1.2 26.5-2 39.6-3.2 21.1-1.87 42.2-4 63.3-5.8 17.2-1.5 34.3-3.1 51.5-4 22.1-1.2 43.7-7.2 66.3-3.3 19.2 3.3 38.6 5.8 58.2 6.4 18.5.5 36.6 6.1 55.5 1.2 10.8-2.7 22.6-1.7 34-2.4V402z" class="st2"/>
  <path d="M1 441c8.8 0 17.46 1.27 26.18 2.4 13.7 1.76 27.55 2.4 41.33 3.6 18 1.6 36 3.5 53.9 4.8 13.1.93 26.4-.12 39-3.45 8.1-2.13 16.1-1.95 24.1-3.24 12-1.9 24.1-.3 36.2-.7 19.7-.5 39.3 2.5 58.9 4.5 12.6 1.3 25.1 2.1 37.7 3.2 17.8 1.6 35.6 3.3 53.4 4.9 12.5 1.1 25.1 2.1 37.6 3.2 18.2 1.6 36.3 3.3 54.4 4.9 13.4 1.1 26.8 2 40.1 3.2 16.8 1.5 33.6 3.3 50.4 4.8 12.9 1.2 25.8 2.1 38.6 3.2 18.3 1.6 36.6 3.3 54.9 4.9 16.9 1.4 33.7 2.4 50.5 4.2 13.4 1.5 26.4 1.1 39.3-3 24.6-7.9 50.2-6.6 75.6-8.1 16.9-1 33.7-3 50.4-4.8 13.8-1.5 27.4.5 41.1 1.4 18.7 1.2 36.9 5.8 55.7 6.7 17.2.8 34.3 3.1 51.4 4.7 12.2 1.1 24.4 2.3 36.6 3.1 6.6.5 11.6 5.4 18.4 5.5 9.4.3 18.8 2.1 28.2 2.5 13.5.7 26.7 2.3 39.6 6.3 9 2.8 18.1 1.2 27.1.6 13-.9 26-2.5 39-3.7l52.9-4.8c13.2-1.1 26.4-2 39.6-3.2 17.2-1.5 34.3-3.2 51.4-4.8 13.2-1.2 26.4-2.1 39.6-3.2 17.5-1.5 34.9-3.3 52.4-4.8 13.2-1.2 26.4-2 39.6-3.2 17.2-1.5 34.3-3.2 51.4-4.8 12.7-1.1 25.4-2.1 38.1-3.2 18.5-1.6 36.9-3.3 55.4-4.9 12.1-1 24.1-2 36.1-3.1 18-1.6 36-3.3 53.9-4.9 13.6-1.1 27.1-1.9 40.6-3.1 17.3-1.5 34.6-3.2 51.9-4.8 12.2-1.1 24.4-2.1 36.6-3.1 10.6-.9 21.1-2 31.7-2.8 11.7-.9 23.1 1.9 34.7 2 12.9.2 25.5 2.5 38.3 3.9 17.9 1.9 35.2-.8 52.6-4.6 13.2-2.9 26.8-1.6 40.2 0 4 .5 8 .4 11.9.7v15c-6.4-.2-12.9.3-19.4-.8-5.5-.9-11.1-1.3-16.8-1-17 .9-34 3.5-50.9 4.3-21.6 1.1-43.4-1.4-65.1-2.5-19.6-.9-39.1 1.9-58.6 3.1-11.4.8-22.7 2.1-34.1 3.1-17.6 1.6-35.2 3.3-52.9 4.8-13.3 1.2-26.7 2.1-40.1 3.3-17.3 1.6-34.6 3.3-51.9 4.8-12.7 1.2-25.4 2.1-38.1 3.2-17.8 1.6-35.6 3.3-53.4 4.8-13.2 1.2-26.4 2.1-39.6 3.3-17.1 1.5-34.2 3.3-51.4 4.8-13.2 1.2-26.4 2.1-39.6 3.3-17.3 1.5-34.6 3.3-51.9 4.8-13.2 1.2-26.4 2-39.6 3.2-20.4 1.8-40.8 4-61.2 5.8-17.5 1.6-35 2.5-52.5 4.4-2.7.3-6.8-1.2-8.8 2.7h-105c-.1-1.4-1-1.9-2.3-2-5.6-.6-11.1-1.3-16.7-1.9-9.8-1-19.8-1.2-29.6-2.9-12.7-2.2-24.5-8.2-38-8.5-18.1-.5-36.2-2.9-54.4-4.6-13.6-1.3-27.3-3.1-41-3.6-5.9-.2-9.2-5.1-14.6-5.5-21-1.3-42-4.9-63.2-2-12.3 1.6-24.8 1.7-37.1 3.4-15.1 2.1-30.2 3.5-45.4 4.7-9.7.8-19.8.5-29.1 3-19.8 5.5-39.6 6.2-59.9 4-18.4-2-36.9-3.3-55.3-5-12.7-1.1-25.4-2-38.1-3.2-17-1.5-33.9-3.3-50.9-4.7-13.2-1.2-26.4-2-39.6-3.1-21.1-1.9-42.2-4-63.3-5.9-16.9-1.4-33.7-2.6-50.5-4.1-20.8-1.8-41.5-4-62.3-5.9-17.5-1.5-35-2.6-52.5-4.1-26.2-2.3-52.3-6.6-78.8-3.9-9.2 1-18.6 1-27.6 3.1-14 3.4-28.1 5.2-42.3 4.6-17-.6-33.9-3.4-50.9-4.6-24.6-1.8-49.1-4.2-73.5-8.1v-11z" class="st3"/>
  <path d="M156.93 351.16c13.7-.05 27.43-.28 41.14-.06 5.48.1 10.7-.7 15.94-2.03 2 1.43 4 1.33 6 .1 1.7 0 3.5 0 5.2-.03 3.6 1.8 7.3.43 11 .83l11.7-.37c8.9 2.1 17.8 2.1 26.7 0 3.6.1 7.1.24 10.7.36 10.4.52 20.9-1.03 31.2.97l13.9.2c3.5 1.75 7.2.48 10.8.8.7 2.84 3.1 2.03 4.9 2.04 13.4.05 26.9.03 40.3.03.8 2.77 3.2 2.7 5.2 2.86 13.8 1.16 27.7 2.06 41.5 3.27 21.1 1.85 42.2 3.97 63.3 5.83 16.8 1.48 33.7 2.64 50.5 4.13 21.1 1.8 42.1 4 63.2 5.8 17.5 1.5 35 2.8 52.5 4 19.7 1.4 39.2 6.1 59.1 2.9 10.3-1.7 21.1-1.1 31-3.6 23-5.7 46.4-4.8 69.6-7.4 12.7-1.4 25.3-3.1 38-3.6 11.4-.5 22.9-4.7 34-1.1 6.7 2.2 13.3 4.2 20.2 4 7.8-.2 14.1 4.8 21.4 5.5 14.6 1.3 29.2 3.2 43.6 6.1l.1 14c-8.8-2.8-18.1-1.9-26.9-3.6-9.7-1.9-19-5.5-28.4-7.9-13.7-3.4-28.1-5.2-42.2-5.3-22.3-.1-44.5 3.4-66.5 6.6l-.1-7c.6-.5 1.1-1.2.3-1.5-1.1-.4-1.1.7-1.2 1.5l-2 11.9h-5c-1.3-4.9-2.6-9.9-4-14.8-.1-.5-.8-.9-1.3-1.4-.1.5-.5 1.1-.4 1.6l2.7 12.6c-3-.6-6-2.3-9 0-2.6-3.8-3.1-8.9-7-12l-.4-.3.4.2c1.2 6.4 4.7 12 7 18-11.3.7-22.6 1.1-33.9 2.2-3 .2-6.7 0-9.1 2.8l-1.9-1.1-1-1-.4-.2.3.2 1 1 1.1 3.9c-6.8.3-13.6-.3-20.4.8-7.3 1.2-14.9 2.3-22.2 1.8-18-1.1-35.9-3.1-53.9-4.7-13.1-1.3-26.3-3-39.5-3.7-7.9-.4-16-3.3-24-.4l-1 1-1 1c-.6.3-1.3.7-1.9 1-5.1-3.8-11-2.7-16.7-3.2-17.2-1.6-34.4-3.4-51.7-4.8-14.2-1.2-28.4-2.1-42.6-3.1 1.3-4 2.7-8 4-12l.2-.5c0 .2-.1.3-.2.4-3.8 3.2-4.3 8.2-7 12.1l-8-2c.6-3.3 1.3-6.7 1.8-10.1.1-.7-.2-1.9-.6-2.1-1.1-.4-1.2.8-1.4 1.5-1.3 4.6-2.5 9.2-3.8 13.8H456c-.65-2.7-1.3-5.4-1.97-8.1-.1-.4-.04-1.7-.9-.4-.23.4-.13 1-.2 1.5-10.85-1-21.7-2.1-32.58-3.1-17.64-1.6-35.25-3.3-52.88-4.8-16.63-1.5-33.3-2.7-49.95-4.2-18.13-1.6-36.25-3.2-54.36-4.9-9.54-.9-19.1-1.7-28.63-2.7-13.37-1.5-26.8-2.2-40.1-2.9-13.7-.8-26.97 4.4-40.5 6-12.7 1.5-25.4 3.3-38.1 3.3-15.8-.1-31.1-6-47-6.3-10.7-.3-21.24-3.3-32.05-1.6-11.94 1.8-23.6 5.5-35.8 5.1v-15c10.02-.9 20.22 1.4 30.12-1.7 1.3 1 2.56 1 3.8-.1l9.4-1.6c5.52.5 11.04 1 16.54-.3 5.9 2.2 12.1 1.5 18.2 1.9 4.63 1.9 9.52.1 14.23.9 16.4 1.4 32.9 1.4 49.3 0 4.7-.8 9.6.9 14.2-1zm295.8 27.2c-.12.3-.38.63-.3.83.08.2.5.2.76.3.1-.3.3-.6.3-.8-.1-.2-.5-.3-.8-.4z" class="st4"/>
  <path d="M1 452c24.36 3.9 48.87 6.37 73.47 8.1 17 1.2 33.9 4 50.9 4.63 14.15.53 28.3-1.27 42.28-4.6 8.93-2.14 18.36-2.2 27.58-3.12 26.45-2.6 52.55 1.7 78.76 4 17.4 1.5 35 2.6 52.5 4.1 20.7 1.8 41.5 4 62.2 5.9 16.8 1.5 33.6 2.7 50.5 4.1 21.1 1.9 42.1 4 63.2 5.9 13.2 1.2 26.4 2 39.6 3.2 16.9 1.5 33.9 3.3 50.9 4.8 12.7 1.2 25.4 2.1 38.1 3.2 18.4 1.6 36.9 3 55.3 5 20.2 2.3 40 1.6 59.9-3.9 9.2-2.5 19.3-2.2 29-3 15.1-1.2 30.3-2.6 45.4-4.7 12.3-1.7 24.8-1.7 37.1-3.4 21.2-2.9 42.2.8 63.2 2.1 5.4.4 8.7 5.3 14.6 5.5 13.7.5 27.4 2.4 41 3.6 18.1 1.7 36.2 4.1 54.4 4.6 13.4.4 25.2 6.4 38 8.5 9.7 1.7 19.7 2 29.6 3 5.6.6 11.2 1.3 16.8 1.9 1.3.2 2.2.6 2.3 2.1h-104c-.2-1.1-.7-1.8-1.9-1.9-10.1-1-20.1-2.1-30.1-3-13.5-1.1-27.1-1.8-40.6-3.3-3.7-.4-8.7 1-10.9-2.2-3.7-5.5-9.1-5.4-14.3-6.3-3-.5-6.1.1-9-.3-18.3-2.9-36.6-2.6-54.8-.6-20.2 2.2-40.4 4.7-60.6 6.8-19.5 2.1-39.4 1.3-58.4 7.2-4.5 1.5-9.8.2-13.7 3.9h-15c-.2-1.4-1-1.8-2.4-2-15.5-1.3-31-2.6-46.5-4-12.5-1-25.1-2-37.6-3.1-18.2-1.6-36.3-3.3-54.4-4.9-12.2-1-24.4-2-36.6-3.1-17.8-1.6-35.6-3.3-53.4-4.8-13.1-1.1-26.1-2-39.1-3.2-17-1.5-34-3.3-50.9-4.8-13.2-1.1-26.5-2-39.7-3.1-21.1-1.9-42.2-4-63.3-5.8-16.8-1.5-33.7-2.4-50.5-4.2-21-2.3-41.6-.1-62.2 3.6-17.8 3.2-35.7 5.2-53.8 3.5-20.7-1.9-41.4-4.6-62.2-5.7-17.4-.9-34.1-6.2-51.5-7.2v-12z" class="st5"/>
  <path d="M2049 474c0 11.67-.17 23.34.1 35 .08 3.44-.68 4.1-4.1 4.1-187.67-.1-375.33-.1-563-.1 3.65-3.57 8.46-2.5 12.77-2.9 13.35-1.3 26.74-2.13 40.1-3.28 17.8-1.53 35.6-3.25 53.4-4.8 12.86-1.13 25.74-2.05 38.6-3.2 17.3-1.53 34.6-3.26 51.9-4.8 13.02-1.14 26.07-2.04 39.1-3.2 17.47-1.53 34.92-3.25 52.4-4.8 12.85-1.13 25.74-2.06 38.6-3.18 17.8-1.56 35.6-3.23 53.4-4.82 10.87-.97 21.74-2.04 32.63-2.76 9.27-.6 18.63-1.6 27.83-.88 10.54.83 21.1 2.78 31.64 2.43 13.86-.4 27.66-2.5 41.52-3.5 8.4-.6 16.9-2.3 25.3-1.1 9.2 1.4 18.4 2 27.7 1.8zM551 513c-181.83 0-363.67 0-545.5.1-3.77 0-4.7-.82-4.6-4.6.3-11.16.1-22.33.1-33.5 7.4 3.2 15.88 2.2 23.13 4.9 11.7 4.34 23.8 3.48 35.67 5 13.6 1.72 27.3 2.9 41 3.78 11.24.7 22.4 2.9 33.7 2.16 10.57-.7 21.13-1.6 31.63-2.9 12.64-1.58 25.5-.58 38-3.74 11.08-2.8 22.36-2.1 33.6-1.05 20.4 1.9 40.8 4 61.24 5.82 17.15 1.52 34.33 2.7 51.48 4.15 18.13 1.54 36.24 3.27 54.37 4.88 12.36 1.1 24.74 2.07 37.1 3.2 17.13 1.55 34.24 3.3 51.38 4.78 17.32 1.5 34.66 2.65 51.97 4.22 1.92.16 4.9-.3 5.73 2.8z" class="st6"/>
  <path d="M2049 390c-11.34.68-23.1-.34-33.92 2.4-18.9 4.82-37-.76-55.46-1.28-19.56-.56-38.98-3.1-58.17-6.4-22.53-3.85-44.2 2.12-66.25 3.3-17.2.94-34.34 2.5-51.5 4-21.08 1.85-42.15 4-63.24 5.86-13.2 1.17-26.42 1.97-39.6 3.15-16.65 1.5-33.26 3.27-49.9 4.76-13.35 1.2-26.73 2-40.1 3.2-17.62 1.5-35.24 3.2-52.87 4.8-11.2 1-22.4 2.1-33.7 3.1-13.1 1.1-26.1 2.1-39.1 3-1.8.1-3.7.6-5.3-.9.5-3.3-1.6-6-2.1-9.1 3.2-1.6 6.6-2.1 10.1-2.1 1.7 1.3.7 4.5 3.5 5.2l.3-4.2c2.4-.4 4.2-2.8 6.9-2 .5 1.4-.8 4.1 1 4.1 1.8-.1.7-2.7.9-4.2.1-1 0-2 0-3 4.5-1 9-1.8 13.6-2.1 13.1-1 26.2-3 39.4-3.6 11-.5 21.9-3.8 33-1.3 2.4 1 1.8-.8 1.9-2l8-1 2 2.5.9-1.6h4c.4 1.7-1 4.9.9 5 1.8.1 1.9-3.1 2.1-5.1 9.9-3.7 20.4-2.8 30.7-4 12.9-1.5 26-2.2 39-3.3 17.4-1.5 34.9-3.3 52.3-4.8 12.8-1.2 25.7-2.1 38.5-3.2 18.1-1.6 36.2-3.2 54.3-4.9 13.3-1.2 26.6-2.9 39.9-3.7 12.7-.7 25.3-3.3 38.1-2.3 1.2 2.4 2.9 4.3 5 6l.4.2-.4-.2-2.1-8c4.6-.1 8.3-4.6 13.7-2.2 14.8 6.6 30.8 6.4 46.6 8.3 10 1.2 20 1.5 30 3.2 6.9 1.2 13.9 3.8 21 2.3 18-3.9 36.4-4.4 54.6-5.7V390z" class="st7"/>
  <path d="M551 513c-.83-3.1-3.8-2.64-5.74-2.8-17.3-1.58-34.65-2.74-51.97-4.23-17.2-1.47-34.3-3.23-51.4-4.8-12.4-1.1-24.8-2.08-37.1-3.18-18.1-1.7-36.3-3.4-54.4-4.9-17.2-1.5-34.4-2.6-51.5-4.2-20.5-1.8-40.9-3.9-61.3-5.8-11.3-1.1-22.5-1.8-33.6 1-12.5 3.1-25.4 2.1-38 3.7-10.5 1.3-21.1 2.2-31.7 2.9-11.3.7-22.5-1.5-33.7-2.2-13.7-.9-27.4-2.1-41-3.8-11.9-1.5-24-.7-35.7-5-7.2-2.6-15.6-1.6-23.1-4.8v-11c17.3.9 34 6.2 51.4 7.2 20.8 1.1 41.5 3.8 62.2 5.7 18.1 1.6 35.9-.4 53.8-3.5 20.5-3.7 41.2-5.9 62.1-3.6 16.7 1.8 33.6 2.7 50.4 4.2 21.1 1.8 42.2 3.9 63.3 5.8 13.2 1.1 26.4 2 39.6 3.1 17 1.5 34 3.2 50.9 4.7 13.1 1.1 26.1 2 39.1 3.2 17.8 1.5 35.6 3.2 53.4 4.8 12.2 1.1 24.4 2 36.6 3.1 18.1 1.6 36.2 3.3 54.4 4.9 12.5 1.1 25.1 2.1 37.6 3.2 15.5 1.3 31 2.7 46.5 4 1.3.1 2.2.6 2.4 2-51.3-.1-102.7-.1-154-.1z" class="st8"/>
  <path d="M2049 373c-18.28 1.26-36.62 1.75-54.66 5.64-7.1 1.53-14.15-1.1-21.07-2.27-9.96-1.68-20-2.03-30-3.2-15.72-1.85-31.8-1.68-46.6-8.26-5.48-2.4-9.1 2.1-13.77 2.2l-2.5-1.2-.38 3.2c-12.77-1-25.34 1.6-38 2.3-13.36.8-26.66 2.5-40 3.7-18.1 1.7-36.2 3.3-54.3 4.9-12.86 1.1-25.73 2.1-38.58 3.2-17.45 1.6-34.88 3.3-52.33 4.8-13 1.2-26 1.9-39 3.3-10.2 1.2-20.8.3-30.7 3.9 0-3.3.1-6.6 0-9.9 0-.9.7-2.2-.6-2.9-.4.9-1.1 1.7-1.2 2.6-.5 3.5-.7 6.9-1.1 10.3h-4.1l-5-19c14.3-1.3 28.7-2.7 43-4 13.2-1.1 26.4-2 39.6-3.1 18.3-1.5 36.6-3.2 54.9-4.8 12.5-1.1 25.1-2.1 37.6-3.2 17.1-1.5 34.3-3.2 51.4-4.8 13.2-1.2 26.4-2.5 39.5-3.8 6.4-.6 12.8-1.8 19.3-1.8 7.1 0 14.1-.1 20.8-2.3 1.7-.2 3.5.6 4.9-.7h2.2c8.6 5.4 17.5 9 27.8 6.1h7.3c3.6 2.5 7.6 2.7 11.8 2.8 10.7.4 21.1 3.5 32 3.6 12.1.1 24 3.3 36.1 2.3 15.4-1.3 30.6-3.5 46.1-2.8v14z" class="st9"/>
  <path d="M1223 513c1.93-3.94 6.03-2.4 8.8-2.7 17.44-1.83 34.98-2.8 52.46-4.34 20.43-1.8 40.83-3.98 61.26-5.83 13.2-1.2 26.42-2 39.62-3.15 17.3-1.5 34.6-3.25 51.9-4.78 13.2-1.16 26.4-2.05 39.6-3.22 17.14-1.52 34.25-3.26 51.4-4.78 13.2-1.17 26.4-2.07 39.6-3.22 17.8-1.54 35.6-3.23 53.4-4.8 12.7-1.1 25.4-2.06 38.1-3.2 17.3-1.54 34.6-3.26 51.9-4.78 13.35-1.17 26.74-2.06 40.1-3.22 17.64-1.53 35.26-3.2 52.9-4.8 11.36-1.05 22.72-2.38 34.1-3.1 19.54-1.2 39-4 58.63-3.1 21.7 1.02 43.5 3.6 65.1 2.5 16.9-.84 33.84-3.46 50.88-4.36 5.72-.3 11.34.17 16.84 1.06 6.5 1.06 12.9.54 19.4.82v11c-7.6-1.16-15.3-1-22.7-2.37-15.2-2.83-30-.38-45 1-13.5 1.22-26.9 3.37-40.5.68-7.3-1.4-14.9-2.7-22.2-1.9-10.1 1-20.1.6-30.1 1.6-13.2 1.4-26.4 2.1-39.6 3.3-17.3 1.5-34.6 3.3-51.9 4.8-13.1 1.2-26.1 2.1-39.1 3.2-18 1.6-35.9 3.3-53.9 4.8-13.1 1.1-26.1 2.1-39.1 3.2-17.5 1.6-34.9 3.3-52.4 4.8-12.6 1.1-25.1 2.1-37.6 3.2-17.6 1.6-35.2 3.3-52.9 4.9-16.7 1.5-33.4 2.7-50 4.2-20.8 1.9-41.5 4-62.3 5.8-17.5 1.6-35 2.6-52.5 4.3-2.2.2-5.6-.7-6.8 2.8h-128z" class="st5"/>
  <path d="M476 390c14.2 1 28.43 1.85 42.62 3.05 17.24 1.45 34.46 3.24 51.7 4.8 5.68.52 11.67-.67 16.72 3.18-2.34 6.04-7.16 11.1-7.06 18.1-8.07 1.08-15.98-.9-23.96-1.4-13.2-.87-26.34-2.5-39.5-3.7-18.3-1.68-36.58-3.3-54.87-4.87-13.2-1.13-26.4-2-39.6-3.17-17.46-1.6-34.9-3.3-52.37-4.9-12.86-1.2-25.74-2.1-38.6-3.2-17.46-1.6-34.9-3.3-52.37-4.9-11.7-1.1-23.4-2.1-35.1-3-16.6-1.4-33.3-4-49.9-3.8-14.7.2-29.5 2.2-44.2 4.8-8.6 1.5-17.6.9-26.1 2.9-21.9 5.3-43.3-1.1-64.9-2.2-9.1-.5-18.2-1-27.2-2.2-7.4-1-14.6-3.8-22.4-1.9-2.5.6-5.2.7-7.8 1v-12c3.8-.4 7.6-.8 11.4-1 13.2-.8 26 3.1 39.1 3.2 8.3 0 16.5 1.5 24.7 2.3 13.4 1.2 26.9 4.1 40 2.9 12.9-1.1 25.8-4 38.8-5 14.3-1.1 28.4-5.1 42.9-4.4 5 .2 10 1.2 14.9.8 13.5-.9 26.7 1.5 40 2.3 17.5 1.1 34.9 3.2 52.4 4.7 13.2 1.2 26.4 2 39.6 3.2 20.8 1.9 41.5 3.8 62.3 5.9 15.4 1.5 31 1.2 46.1 4.9 1.5.6.4 3.5 2.1 3.2 1.7-.3.8-2.5.9-3.8.1-1.8 0-3.5 0-5.3h5l.6 4.1c1.9-.5 1.3-2.4 2-3.6.7-1.1 1-2.4 1.4-3.6l8 2c.7 2.6-2.6 4.5-1.4 7.2 2.6-1.6 2.6-4.7 4.1-6.9.1-.2.3-.2.4-.3zm91.8 20.63l.82 2.57c2.63-1.5 2.36-4.43 3.25-6.76.27-.7-.28-1.73-.45-2.6-2.2 1.7-2.16 4.53-3.6 6.8zm-8.8-2.35c.24 1.04-.46 2.95.9 2.92 1.87-.03 1-2.05 1.06-3.2.05-1 .63-2.93-.65-2.93-1.7 0-1 2-1.3 3.2z" class="st7"/>
  <path d="M1351 513c1.17-3.45 4.62-2.55 6.76-2.76 17.46-1.67 34.97-2.75 52.45-4.28 20.8-1.8 41.5-3.97 62.3-5.83 16.7-1.5 33.3-2.7 50-4.16 17.7-1.54 35.3-3.26 52.9-4.83 12.6-1.1 25.1-2.05 37.6-3.17 17.5-1.56 34.9-3.28 52.4-4.82 13.1-1.15 26.1-2.06 39.1-3.18 18-1.55 35.9-3.26 53.9-4.8 13.1-1.14 26.1-2.05 39.1-3.2 17.3-1.53 34.6-3.27 51.9-4.8 13.2-1.15 26.5-1.9 39.6-3.25 10-1.03 20-.56 30.1-1.58 7.3-.74 14.9.52 22.2 1.96 13.6 2.7 27 .54 40.5-.7 15-1.36 29.8-3.8 45-.98 7.4 1.38 15.2 1.22 22.7 2.37v9c-9.3.2-18.5-.5-27.7-1.9-8.4-1.3-16.9.5-25.3 1.1-13.8 1-27.6 3-41.5 3.5-10.5.3-21.1-1.6-31.6-2.5-9.2-.8-18.6.3-27.9.9-10.9.7-21.7 1.8-32.6 2.7l-53.4 4.8c-12.9 1.1-25.7 2-38.6 3.2-17.5 1.5-34.9 3.2-52.4 4.8-13 1.1-26.1 2-39.1 3.2-17.3 1.5-34.6 3.2-51.9 4.8-12.9 1.1-25.7 2-38.6 3.2-17.8 1.5-35.6 3.3-53.4 4.8-13.4 1.1-26.8 2-40.1 3.3-4.3.4-9.1-.7-12.8 2.9h-131z" class="st8"/>
  <path d="M453.02 397c-15.16-3.7-30.75-3.45-46.14-4.98-20.73-2.05-41.48-4-62.23-5.87-13.2-1.18-26.4-2.02-39.6-3.18-17.46-1.53-34.9-3.63-52.37-4.7-13.32-.83-26.55-3.23-40-2.38-4.92.3-9.9-.7-14.86-.9-14.52-.7-28.56 3.3-42.9 4.4-13.04 1-25.9 3.9-38.77 5-13.15 1.1-26.66-1.8-40-3-8.24-.8-16.46-2.3-24.7-2.3-13.14-.1-25.9-4-39.08-3.2-3.8.2-7.58.6-11.37 1v-9c12.22.3 23.87-3.4 35.78-5.2 10.8-1.6 21.36 1.4 32.06 1.6 15.92.3 31.18 6.2 47 6.3 12.68 0 25.4-1.8 38.04-3.3 13.58-1.6 26.87-6.8 40.5-6 13.36.7 26.77 1.4 40.1 2.8 9.54 1 19.1 1.8 28.64 2.7 18.12 1.6 36.23 3.3 54.35 4.8 16.65 1.4 33.32 2.7 49.97 4.1 17.63 1.5 35.24 3.2 52.86 4.9 10.87 1 21.73 2.1 32.6 3.1l.12 13z" class="st9"/>
  <path d="M720 513c3.85-3.7 9.1-2.45 13.63-3.87 19-5.95 38.86-5.1 58.36-7.17 20.1-2.15 40.3-4.66 60.5-6.83 18.3-1.97 36.5-2.28 54.8.68 2.9.5 6-.1 8.9.4 5.2.9 10.6.8 14.3 6.3 2.1 3.3 7.2 1.8 10.9 2.3 13.4 1.6 27 2.2 40.5 3.4 10 .9 20 2 30 3.1 1.2.1 1.7.9 1.9 2H720z" class="st8"/>
  <path d="M2049 359c-15.45-.62-30.72 1.58-46.05 2.87-12.1 1.02-24.06-2.16-36.1-2.25-10.85-.1-21.23-3.14-31.94-3.53-4.2-.2-8.2-.4-11.7-2.8 5.2-1.9 10.5-.8 15.7-.8 33.4-.2 66.9-.1 100.3-.1 3.3 0 6.6-.3 9.9-.4v7zM978.92 382.98c-14.4-2.93-28.95-4.8-43.6-6.14-7.3-.67-13.6-5.7-21.42-5.5-6.9.18-13.44-1.82-20.15-4.02-11.1-3.63-22.63.63-34 1.08-12.7.5-25.36 2.2-38 3.6-23.16 2.58-46.6 1.7-69.55 7.38-9.93 2.46-20.7 1.9-31 3.56-19.9 3.23-39.4-1.55-59.1-2.94-17.5-1.24-35-2.55-52.5-4.06-21.1-1.83-42.15-4-63.25-5.86-16.82-1.5-33.67-2.65-50.5-4.13-21.08-1.86-42.16-3.97-63.25-5.83-13.8-1.2-27.63-2.1-41.43-3.27-2-.17-4.47-.1-5.2-2.86 1.54 0 2.92-.2 3.16-2.1l3.86.1.9.9c.3 1.1.7 2.7 1.8.6.8-1.5 1.8-1.7 3.1-1.7 7.5 0 15 .3 22.5-.1 3.9-.3 7.7 2.1 11.5.1h11.8c3.8 4.3 8.8 1 13.1 2h2.8c1 2.9 2.9 2.3 5 1.2h5.2c8.6.3 17.2 3.2 25.9.7h11.9c2 1.5 4 1.5 6 0 1.1-.1 2.2.1 3-1h4l1 1c1 1.2 2 1.2 3 0l3.9-.1c33.6.3 67.2 1.2 100.8.8 14.9-.2 29.9-1.1 44.8-.6 8.3.3 16.8.3 25 1.6 6.6 1.1 13 1.8 19-.2 7.7-2.6 15.4-1.6 23-1.2 18.1.9 36.1 1.1 54.1-1.2 1.8 0 3.5-.1 5.3-.1 2 1 4 1.6 5-1.3h2.8c4.3-1 9.3 2.3 13.2-2h11.8c3.1 2.6 6.3-.2 9.5-.1 8.5.3 17 .1 25.5.1H880c.4 1.9 1.84 2.1 3.43 2.1 8.5-.1 16.9-.1 25.4 0 1.6 0 3.02-.2 3.4-2.1l8.84.1c5.85 3.9 12.55 1.3 18.75 2.4 9.2 1.6 17.8 5.4 27.3 6.5 8.73 1 17.7 3.1 26.35 3.5 7.7.4 15.47.9 23 2.3 17.45 3.2 35 5.3 52.7 6.3 9.4.6 18.7 2.2 28.1 2.7 10.1.6 19.6 5.2 29.9 4.3l45.2-3.9c26.5-2.3 53-4.7 79.6-7 22.9-2 45.75-4.7 68.7-5.8 25-1.2 49.7-5.3 74.9-4.8 14.6.3 29.4-1.3 44.2-1.4 1.5 0 3.1.2 3.5-1.9h64.1c2.1 1.6 4.6.5 6.9.9.7.9 1.4.9 2 0h11c1.7 1.4 3.4 1.4 5 0 7.3-.6 14.7 1 22-.9l20.1-.1c1.9 1.5 3.3 1.5 4.2-1.1l2.8-.9 9.05-.1c1.9 1.5 3.3 1.5 4.15-1.1 5.3-.4 10.6 1.1 15.8-.8h28.1c1.8 1.5 4 .6 6 .8h1.93l3.86-.1c1.04 3 3 2.4 5.05 1.3l7.1.1c-.1 3.6-2.8 3.5-5.4 3.7-8.7.7-17.5 1.3-26.2 2.1-17.9 1.6-35.9 3.3-53.9 4.8-12.7 1.1-25.4 2-38.1 3.1-17.1 1.5-34.2 3.3-51.4 4.8-13.2 1.1-26.4 2-39.6 3.1-17.9 1.6-35.9 3.3-53.9 4.9-12.7 1.1-25.4 2-38.1 3.2-17.1 1.6-34.2 3.3-51.4 4.9-13.2 1.2-26.4 2-39.6 3.2-18.3 1.5-36.6 3.2-54.8 4.9-12.8 1.2-25.7 2.6-38.5 3.8-9.9.8-19.9 2.4-29.7 1.8-13.3-.9-26.4-4.2-39.8-5.5-25.6-2.4-51.2-4-76.7-6.3-7.3-.7-14.5-2.6-21.8-4l2.1-7.9.2-.5-.2.4-3 3c-3.5-2.2-7.2-2.2-11-1.1-.1-.7.1-1.5-.3-1.9-.9-.9-1.4.1-1.5.8-.5 2-.8 4-1.3 6-2.6-.6-5.2-.6-7.9 0-.3-.9-.6-1.8-1-2.6-.2-.5.5-1.5-.7-1.2-.2.1-.2 1.1-.3 1.8z" class="st10"/>
  <path d="M1003.97 385.96c7.26 1.34 14.47 3.27 21.8 3.93 25.55 2.2 51.18 3.8 76.72 6.2 13.3 1.2 26.4 4.5 39.7 5.4 9.8.6 19.8-1 29.7-1.8 12.8-1.2 25.7-2.6 38.5-3.8 18.3-1.7 36.5-3.3 54.8-4.9 13.2-1.2 26.4-2 39.6-3.2 17.1-1.5 34.2-3.3 51.3-4.9 12.7-1.1 25.4-2.1 38.1-3.2 17.9-1.6 35.9-3.3 53.9-4.9 13.2-1.2 26.4-2 39.6-3.2 17.1-1.5 34.2-3.3 51.4-4.9 12.7-1.1 25.4-2 38.1-3.2 17.9-1.6 35.9-3.3 53.9-4.9 8.7-.8 17.4-1.4 26.2-2.1 2.5-.2 5.2-.1 5.3-3.7 1.7 0 3.4 0 5.1-.1 3.2 1.1 6.5 1.1 9.7 0l16.2-.1c2 1.1 4 1.6 5-1.3h8.8c4.7 0 9.5.1 14.3 0 1.8 0 4.1.8 4.9-2h8.8c3 1.6 6 1.6 9.1 0h19.7c3 3 25.3 3 28.3 0h19.8c3.3-.3 6.7.9 9.9-.7h7.2c2 1.1 4 1.7 5-1.3l3.8.1c3 .6 6 .3 8.9-.7h10.3c2.1 1 4 1.6 5-1.4h17.6l.1 2c-6.8 2.2-13.8 2.2-20.9 2.3-6.4 0-12.8 1.2-19.2 1.8-13.2 1.3-26.4 2.5-39.6 3.8L1749 360c-12.5 1.1-25.1 2.1-37.6 3.2-18.3 1.6-36.6 3.3-54.9 4.9-13.2 1.1-26.4 2-39.6 3.1-14.3 1.2-28.7 2.6-43 3.94-3.3-.7-1.5 1.9-1.9 3-3.6-.7-7.3-1.7-10 2.1l-3-3.04-.5-.2.4.25 2 7.94c-1.66 1.7-3.78.9-5.7 1-10.4.7-20.8 1.3-31.2 2.2-17.8 1.5-35.6 2.7-53.3 5-7 .9-14.76-1.6-20.95 3.8h-1.9c-1.4-1.6-3.2-2-5.3-1.8-13.96 1.3-27.9 2.6-41.9 3.8-12.18 1.1-24.37 2-36.5 3.1l-52.3 4.8c-.1-1.2.3-3.1-1.65-2.7-1.9.4-1.1 2.4-1.3 3.7h-13c.57-2 1.1-4 1.6-6.1.2-.7 1.1-2.9-.8-1.6-2.44 1.7-1.8 5-1.7 7.8-1.9-.5-3.8 1.7-5.7 0-.1-.8 0-1.7-.3-2.4-1.2-3.1-1.3-6.8-4.5-8.8-1.9 3.5 1.1 6.1 1.5 9.2h-4c-1.74-2.6-3.44-5.2-5.3-7.7-.5-.7-2-1.6-2.2-1.5-.96.8-.1 1.7.4 2.5l6.1 9.6c-7.25 1.8-14.7 1.6-22.05 2.2-17 1.5-33.9 3.1-50.9 4.7-13.7 1.3-27.3 2.8-41 3.8-13.1.9-26.2 2.7-39.4-.8-17.5-4.7-35.5-5.3-53.5-5.9 1.6-4.8 5.2-8.8 5.82-14l.4-.5-.5.4c-3.4 2.2-3.8 6.7-6.9 9.1-2.7-4-6.8-1.4-10.1-2.1v-4l.2-.4-.2.4c-2.6 1.1-2.3 4.2-3.9 6l-7-2c-.3-.9.4-2.5-1.3-2.4-.3.1-.5 1.6-.8 2.4-12.26-4.2-25.27-3.9-37.8-6.1-5.1-.9-10.8 1.3-15.2-2.8v-1l6-11.1z" class="st4"/>
  <path d="M1444 355.1c-.37 2.12-2 1.88-3.5 1.9-14.77.08-29.62 1.68-44.22 1.38-25.23-.5-49.95 3.63-74.94 4.83-22.95 1.1-45.82 3.8-68.73 5.8l-79.5 7.1c-15 1.3-30 2.7-45 4-10.3.9-19.7-3.7-29.9-4.2-9.4-.5-18.7-2.1-28.1-2.7-17.7-1-35.2-3.1-52.7-6.3-7.5-1.4-15.2-1.9-23-2.3-8.6-.4-17.6-2.5-26.3-3.5-9.5-1.1-18.1-4.9-27.3-6.5-6.2-1.1-12.9 1.6-18.7-2.4l2-.9h32.1c5 1.5 9.9 1.4 14.9.2 60.2 7.9 120.6 2.9 180.9 3.5 95.7 1 191.5.2 287.2.2 1.7 0 3.3.2 5 .3zm-647.15.22c-18 2.3-36.04 2.02-54.1 1.15-7.7-.37-15.3-1.46-23.08 1.17-6 2.03-12.43 1.25-19.04.18-8.13-1.3-16.66-1.34-25-1.63-14.93-.6-29.9.4-44.85.5-33.6.4-67.2-.5-100.82-.8l.03-.9c1.6-.3 3.2-.7 4.8-.7h256.3c1.9 0 4-.7 5.7.9zm-407.7-3.38c-.25 1.92-1.63 2.1-3.16 2.07-13.5 0-26.9.1-40.3 0-1.9 0-4.2.8-4.9-2l.1-.7c16 1.9 32 1.9 48 0 0 .2 0 .5.1.7z" class="st11"/>
  <path d="M1915.86 353.3c-10.32 2.85-19.23-.76-27.77-6.08 9.4 1.26 18.9 1.97 27.7 6.08z" class="st10"/>
  <path d="M870.06 351.96c-8.52.02-17.05.27-25.56-.08-3.2-.13-6.36 2.75-9.53.1l.04-.92c11.7-1.1 23.4-1.12 35 .03 0 .3.1.5.1.8zm43.1-.02c-.4 1.94-1.84 2.07-3.43 2.07h-25.45c-1.6 0-3.04-.1-3.42-2 .06-.2.1-.4.14-.7 10.66 1.9 21.33 1.9 32 0 .03.3.08.5.15.7zm-480.13.06c-3.85 1.98-7.67-.4-11.57-.14-7.47.48-14.98.13-22.48.12 0-.3 0-.6.02-.9 11.33-1.1 22.66-1.1 34-.02l.03.93zm64 4c-8.7 2.5-17.27-.36-25.9-.72 8.62-1.5 17.24-1.26 25.87-.2l.03.9zm1296.13-6.05c-3.04 3-25.28 3-28.32 0 .07-.22.12-.45.16-.68 9.33 1.78 18.66 1.78 28 0 .04.22.1.45.16.68z" class="st11"/>
  <path d="M1554.94 355.13c-7.25 1.94-14.64.35-21.94.88h-18c-2.3-.3-4.8.8-6.94-.8h46.88z" class="st4"/>
  <path d="M1727.16 349.96c-.72 2.82-3.05 2-4.88 2.02-4.78.08-9.55 0-14.33 0l.06-.9c6.3-1.64 12.9.54 19-1.82.1.23.1.47.2.7z" class="st11"/>
  <path d="M316.2 350.94c-10.35-2-20.8-.45-31.2-.97v-.9c8.9-.08 17.76-.22 26.64-.16 1.65 0 3.78-.2 4.56 2.1z" class="st7"/>
  <path d="M823.15 351.97c-3.84 4.3-8.83 1-13.17 2l.03-.9 13-1.8c.1.23.1.47.2.7zM458.02 354c-4.33-1.04-9.32 2.26-13.15-2.02.07-.23.1-.47.14-.7l13 1.8c0 .3 0 .6.1.9zm1287.02-4c-3.03 1.6-6.05 1.6-9.08 0l.04-.94c3-1.06 6-1.06 9 0 0 .3.02.62.04.93z" class="st11"/>
  <path d="M497.03 356c0-.32-.03-.62-.03-.93 7 0 14-.03 21-.04-.74 1.1-1.9.94-3 .98h-17.97z" class="st4"/>
  <path d="M1847.87 347.3c-2.9.97-5.87 1.26-8.9.7l.04-.9c3-.95 6-1.2 8.9.2z" class="st10"/>
  <path d="M1677.87 353.3c-3.25 1.15-6.5 1.16-9.74 0 3.25-1.38 6.5-1.38 9.74 0z" class="st11"/>
  <path d="M1822.88 349.26c-3.2 1.57-6.6.38-9.9.7 0-.28.02-.58.04-.87 3.3-1 6.6-1.3 9.86.1z" class="st10"/>
  <path d="M1813 349.1c0 .28-.02.58-.04.87l-19.8-.02c-.06-.23-.12-.45-.16-.68 6.66-.9 13.34-.44 20-.18z" class="st2"/>
  <path d="M1880.84 345.93h-17.68c-.06-.2-.12-.4-.16-.63 6-.76 12-.77 18 0-.04.2-.1.43-.16.63z" class="st1"/>
  <path d="M60.87 349.27c-5.5 1.35-11.02.86-16.55.3 5.5-1.33 11.02-.87 16.55-.3z" class="st9"/>
  <path d="M1610.94 351.13c-5.18 1.9-10.55.4-15.8.85-.07-.23-.12-.47-.15-.7 5.3-.82 10.6-.5 15.9-.15zm-640.04.1c-4.96 1.2-9.9 1.37-14.85-.13l14.85.12z" class="st4"/>
  <path d="M93.3 352.13c-4.7-.8-9.6.97-14.23-.98 4.77 0 9.65-1.54 14.24.98zm63.63-.97c-4.64 1.94-9.54.18-14.25.97 4.6-2.5 9.48-1 14.25-.97z" class="st2"/>
  <path d="M1880.84 345.93c.06-.2.12-.42.16-.63 2-.32 3.84-.18 4.9 1.94-1.47 1.32-3.26.56-4.9.77l-.16-2zm-45.7 2.02c-1 2.94-2.95 2.35-5 1.32 1-2.16 2.84-2.28 4.86-1.96.03.3.08.5.15.7z" class="st10"/>
  <path d="M1655.9 353.22c-2.08 1.1-4.02 1.7-5.05-1.28.06-.23.1-.46.15-.7 2.02-.28 3.85-.13 4.9 1.98zm43.27-1.28c-1.04 2.95-2.98 2.4-5.06 1.3 1.1-2.15 2.9-2.28 4.9-1.98.1.23.1.46.2.68zm-892.05 2.04c-1 2.96-2.95 2.3-4.98 1.3.98-2.22 2.86-2.28 4.87-2.04l.2.74zm-341.24 1.27c-2.04 1.04-3.98 1.7-5-1.27.06-.24.1-.5.1-.74 2.03-.26 3.9-.15 4.9 2z" class="st11"/>
  <path d="M1863 345.3l.16.64c-1 2.93-2.95 2.4-5.02 1.35 1.02-2.2 2.83-2.4 4.86-2z" class="st10"/>
  <path d="M445 351.26c-.03.24-.07.48-.14.7l-11.83.03c0-.4-.02-.7-.03-1l12 .2z" class="st4"/>
  <path d="M247.64 349.6L236 350v-.92c3.9-.13 7.82-.95 11.64.55z" class="st2"/>
  <path d="M1579.15 353.97c-.82 2.53-2.27 2.6-4.13 1.05.53-2.4 2.38-1.82 4-1.76 0 .24.06.48.13.7zm15.85-2.7c.03.23.07.47.14.7-.83 2.52-2.27 2.6-4.13 1.04.6-2.3 2.4-1.8 4-1.7z" class="st11"/>
  <path d="M823.15 351.97c-.07-.23-.12-.47-.14-.7l12-.2v.92l-11.8-.1z" class="st4"/>
  <path d="M1745.04 350l-.04-.94h11v.9c-3.65.02-7.3.02-10.96.03zM236 349.06v.92c-3.64-.4-7.4.97-10.94-.83l10.93-.1zm677.15 2.88c-.06-.23-.1-.46-.15-.7 3.65-.82 7.32-.43 10.98-.14l-2 .9-8.83-.06zm-32.15-.7c-.04.24-.08.47-.14.7h-10.8l-.08-.84c3.68-.28 7.36-.68 11.02.15z" class="st7"/>
  <path d="M341 351.26c-.04.23-.1.46-.17.68-3.58-.32-7.28.95-10.76-.8 3.65-.33 7.3-.7 10.93.12zm-56-2.2v.9c-3.55-.1-7.1-.24-10.63-.36 3.48-1.5 7.08-.66 10.64-.54z" class="st2"/>
  <path d="M399 351.07c0 .3 0 .6-.02.9-1.32.02-2.33.2-3.1 1.66-1.14 2.14-1.54.48-1.88-.63v-1c.34-.3.67-.62 1-.94h4z" class="st4"/>
  <path d="M1736 349.05c0 .3-.02.62-.04.93l-8.8-.02c-.08-.23-.13-.47-.17-.7l9-.2z" class="st7"/>
  <path d="M1756 349.97v-.9l9 .2c-.04.23-.1.46-.16.68-2.95 0-5.9 0-8.84.02zm-56.83 1.97c-.07-.22-.13-.45-.17-.68l9-.2c0 .3-.03.6-.05.9-2.93 0-5.85 0-8.78-.02z" class="st2"/>
  <path d="M530 355.07l-.03.9-3.97.04h-3l-1.02-.9c2.68 0 5.35.1 8.02.1zm1115-3.1c-1.98-.23-4.14.72-5.94-.84l5.93-.07v.9z" class="st4"/>
  <path d="M219.92 349.18c-2 1.2-3.96 1.32-5.9-.1 1.97.02 3.93.06 5.9.1zm1425.08 2.8c0-.3 0-.6-.02-.9l6.02.2c-.04.2-.08.44-.15.67l-3.86.08c-.4-.02-.7-.02-1 0l-1-.06zm-1250-.92l-1 .95c-.32 0-.66 0-1 .1l-3.85-.1-.15-.7c2 0 4-.1 6-.2zm1440.15-3.1c-.07-.2-.12-.43-.15-.65l4-.2c0 .3-.03.6-.04.9h-3.8zm-1800.2 3.2c-1.24 1.14-2.5 1.12-3.8.12l3.8-.12z" class="st7"/>
  <path d="M1579.15 353.97c-.07-.23-.12-.47-.14-.7l3-.17-2.8.87zm-772.03 0c-.06-.23-.1-.5-.1-.73l3-.15-.03.9c-1-.1-2-.1-2.9-.1zM461 353.25c0 .25-.05.5-.1.74H458c0-.3 0-.6-.02-.9l3 .1z" class="st4"/>
  <path d="M1292.98 472c-1.06-2.42-2.17-4.82-3.16-7.27-.44-1.08-2.56-2.15-.9-3.25 1.14-.77 2.05 1.25 3.1 1.96 2.83 1.9 2.3 6.38 5.95 7.6 0 .64.06 1.3 0 1.93-.1 1.4-.08 3.9-.46 3.98-2 .35-2.1-1.83-3-3.05l-1.4-1.9zm-27.05 0c-.95-2.52-4.13-3.95-3.52-7.23 2.9.83 4.3 3.5 6.3 5.37 2 1.78 3.6 3.86 5.4 5.8.3 1.24 2.4 2.14 1.4 3.3-1.2 1.34-2.3-.53-3.2-1.2-2.2-1.85-4.1-4-6.2-6.05zM221.96 420.98c.1-.48.06-1.06.3-1.43.95-1.35.34-4.37 2.77-3.9 1.87.35.64 2.82.95 4.32-1.2 1-.83 2.4-1 3.67-.22 1.64.84 4.52-1.56 4.44-2.2-.07-1.2-2.95-1.42-4.64-.1-.8-.03-1.63-.04-2.46zm1592.97 0c0-.17-.04-.35 0-.5.6-1.7-2.24-4.2.02-4.8 2.52-.68 1.8 2.96 3.07 4.3 0 .34.05.68-.02 1-.53 2.4 1.33 6.74-1.37 6.83-2.5.1-1.3-4.3-1.7-6.8zM232 424.02c2.5-1.3 3.37-3.94 4.95-6 .88-1.13 1.94-3.33 3.1-2.44 1.7 1.28-.48 2.75-1.2 4.07-.6 1.12-1.24 2.23-1.87 3.35-2.7.82-2.7 4.84-5.92 5.07l-.13-.1L232 424zM1801.95 421c-.47-.7-1.05-1.32-1.37-2.07-.48-1.1-2.23-2.42-.7-3.37 1.26-.8 2.14 1.04 2.92 2.05 1.1 1.5 2.15 3 3.23 4.4l3.04 6-.14.1c-3.7-1-4.3-5-6.98-7.1zm-485.97 49c1.93-1.55-.1-5.1 3.08-6 0 2.6.1 5.22-.08 7.82-.1 1.4.88 3.86-1.66 3.76-2-.08-1.13-2.3-1.32-3.63-.1-.64-.02-1.3-.02-1.96zm470.04-47c-.2-.74-.8-1.66-.54-2.2.45-.94 1.3-.4 1.93.13 1.2 1.02 2.4 2.06 3.6 3.1l1.1 4.94v.07l-5.9-6.04zm-480.15 45.97c.5-1.42-.63-4.37 1.08-4.1 2.15.34.65 3.34 1.16 5.1-.3.88.4 2.65-1.3 2.3-.5-.1-.6-2.15-.9-3.3zM248.02 425.05c.76-.62 1.48-1.3 2.3-1.85.97-.65 1.7-2.8 3.03-1.5 1.16 1.13-1.1 2.05-1.32 3.3-1.36-1.6-2.58 6.94-4 .05z" class="st6"/>
  <path d="M1809.07 427.95l.98 2-.1.1-1.03-1.97.15-.13zm-1578 .12c-.34.66-.7 1.32-1.03 1.98l-.1-.1 1-2 .13.12zm1560.97.9c.13.1.26.17.4.26l-.47-.2.07-.06z" class="st6"/>
  <path d="M230.04 430.05l-1.02 1-.06-.07 1-1.02.08.1zm1580.94 1l-1.02-1 .1-.08.98 1.02c0-.1-.06 0-.06 0z" class="st6"/>
  <path d="M229.02 431.04l-.25.4c.06-.16.13-.3.2-.45 0-.1.05 0 .05 0zm1582.02-.06l.4.25c-.16-.06-.3-.13-.45-.2-.1 0 0-.05 0-.05z" class="st8"/>
  <path d="M255.36 418.72c.1 0 .26-.02.3.04.08.1.07.24.1.36l-.53-.05.13-.35z" class="st6"/>
  <path d="M1458.98 419.08c-7.28 2.63-15 2-22.5 2.78-22.7 2.36-45.46 4.13-68.2 6.06-16.82 1.42-33.66 2.62-50.48 4.1-20.75 1.85-41.48 4-62.24 5.84-13.35 1.2-26.74 2-40.1 3.17-17.13 1.5-34.24 3.25-51.37 4.75-14.2 1.24-28.3 2.2-42.1-3.45-7.8-3.2-16.7-2.33-25-3.24-20.1-2.2-40.2-4.1-60.3-5.9-13.1-1.2-26.1-2.1-39.1-3.2-21.1-2-42.2-4.1-63.3-6.1-.8-.1-1.8-.3-2.3-.9-6.2-6.8-14.9-4.9-22.5-5.9-9.5-1.2-19.1-2-28.7-2.7-7.7-.7-15.5 1-23.2 1.7-9.2.8-18.4 1.9-27.7 2.7-18.6 1.7-37.2 3.6-55.9 4.8-20.5 1.3-40.6 6.2-61.1 6.8-14.2.4-28.4-1.8-42.6-3-10.1-.8-20.1-1.7-30.1-2.8-19.8-2.2-39.9-2.4-59.6-5.9l3.1-7.1c5.6-1 11.2-.2 16.7.3 16.9 1.4 33.9 3.1 50.8 4.7 14.2 1.3 28.3 3 42.5 3.7 7.4.3 14.6 1.9 22.2.8 13.4-2 26.9-3.1 40.4-4.5.3.9.6 2.3 1.8 1.8 2.3-.9-.1-2.5.3-3.8 2.3-4.5 6.5-2.6 9.9-3 .8 1.1 1.6 2.6 2.4 0 3.2-.2 7.6 1.4 6.8-4.7-.1-.9-.3-2.5.8-2.5 1.7 0 .7 1.8 1.1 2.7.6 1.3-1.6 4.6 2.6 3.6 10.5-2.6 21.2-3.4 32-3.2 14.8.2 29.6-1 44-3.7 18.1-3.4 35.9-.7 53.8.2 10 .5 18.6 6.8 28.8 7 6.7.2 13.8.2 20.1 2.2 14.9 4.6 30.2 4.8 45.5 6.1 12.3 1.1 24.7 2.1 37.1 3.2 16.4 1.5 32.9 3 49.3 4.9 11.5 1.4 23.2.7 34.4 4.1 6.1 1.9 12.3 3.7 18.4 3.4 13.3-.6 26.6-2.4 40-3.5 12.8-1.1 25.7-2 38.6-3.2 17.4-1.5 34.9-3.3 52.3-4.8 13.2-1.2 26.4-2 39.6-3.2 18.3-1.6 36.6-3.2 54.8-4.9 12.2-1 24.4-2.1 36.6-3.1 15.6-1.3 31-4.3 46.8-2.8 1.4 3 2.7 6 4.1 9z" class="st7"/>
  <path d="M584.14 411.98l-3.12 7.1-1.04.03c-.1-6.9 4.72-12 7.06-18l1.96-1c-.2 4.6-3.5 7.9-4.86 12zm874.84 7.1l-4.08-9.1-1.9-6.97c2.9 1.5 2.7 5.2 4.97 7.1.48 3.1 2.53 5.8 2.04 9.1h-1z" class="st6"/>
  <path d="M1453 403l1.9 6.98c-15.76-1.5-31.25 1.54-46.84 2.83-12.2 1.1-24.4 2.1-36.6 3.2-18.28 1.6-36.55 3.3-54.84 4.9-13.2 1.2-26.4 2-39.6 3.2-17.45 1.6-34.9 3.3-52.35 4.9-12.86 1.2-25.74 2.1-38.6 3.2-13.33 1.2-26.63 3-40 3.6-6.1.3-12.3-1.5-18.32-3.4-11.2-3.4-22.95-2.7-34.43-4.1-16.42-1.9-32.9-3.3-49.35-4.9-12.36-1.1-24.73-2.1-37.1-3.2-15.24-1.3-30.58-1.5-45.48-6.1-6.4-1.9-13.4-2-20.2-2.2-10.2-.2-18.7-6.5-28.8-7-18-.8-35.8-3.5-53.8-.2-14.5 2.7-29.2 3.9-44 3.7-10.8-.2-21.5.6-32 3.2-4.2 1-2-2.2-2.6-3.6-.4-1 .5-2.7-1.2-2.7-1.2 0-1 1.6-.9 2.5.8 6.1-3.6 4.5-6.8 4.7-.8-2.9-1.4-5.9-3.7-8.2-1.7 3.1.8 5.5 1.3 8.2-3.5.4-7.7-1.5-9.9 3l-7-14c2.4-2.8 6.1-2.6 9.1-2.9 11.2-1 22.5-1.5 33.8-2.1h1.1l.4 1.3c.1-.1.2-.1.4-.2l-.7-1-1.1-6c3-2.3 6-.6 9 0 .8 1.8.3 4.1 2.6 5.2l.5-3.2h5c0 1.8-.1 3.6 0 5.5 0 1-.6 2.6 1.1 2.8.3 0 1.2-1.5 1.3-2.3.3-3.7.4-7.3.6-10.9 22.1-3.3 44.2-6.8 66.5-6.7 14.1.1 28.5 1.9 42.1 5.3 9.4 2.3 18.7 6 28.4 7.8 8.8 1.8 18.1.8 26.9 3.6.9 1 .3 3.3 2.1 3.4 1.1.1.7-1.5.9-2.4 1.9 0 3.9.3 4.9-2h1.1c3-.1 6 0 9 1l.9 1c4.4 4.1 10.1 1.9 15.2 2.8 12.6 2.3 25.6 1.9 37.8 6.2.4 1.5-.9 4.1 1 4.2 1.8 0 .6-2.7 1-4.2l6.9 2c.3 1.4-.9 3.7.6 4 1.6.4 1.7-2 2.3-3.2.4-.9.7-1.9 1.1-2.8 3.4.7 7.4-1.9 10.1 2.1-.3 1.4-.8 2.8-1 4.2-.2 1.7-2.3 4-.4 4.7 1.5.6 1.8-2.4 2.5-4 18 .7 36 1.3 53.5 5.9 13.2 3.6 26.3 1.8 39.4.9 13.7-.9 27.4-2.4 41-3.7 17-1.6 33.9-3.3 50.9-4.7 7.4-.6 14.8-.4 22-2.2l.9.1.5.2-.4-.3v-3h3.9l3.3 2c1.9 1.7 3.8-.4 5.7 0h14.1c1-.3 1.9-.7 2.9-1 17.4-1.6 34.8-3.3 52.3-4.8 12.2-1.1 24.3-2.1 36.5-3.2 14-1.3 28-2.5 41.9-3.8 2.2-.2 3.9.1 5.4 1.8l2 2c-.1 1.4-.1 2.9 2 2.9v.1zm-868.86 8.98c1.36-4.1 4.66-7.42 4.86-12v.02l1.02-1.02-.03.03 1-1c8-2.9 16 0 24 .4 13.2.7 26.3 2.4 39.5 3.7 17.9 1.7 35.8 3.7 53.8 4.7 7.3.5 14.8-.6 22.2-1.8 6.8-1.1 13.6-.5 20.4-.8l5.9 13c-13.5 1.5-27 2.5-40.4 4.5-7.6 1.2-14.9-.4-22.3-.8-14.2-.7-28.4-2.4-42.5-3.7-17-1.6-33.9-3.3-50.9-4.7-5.6-.4-11.2-1.2-16.8-.2z" class="st9"/>
  <path d="M464.98 387.98c-.44 1.2-.74 2.47-1.37 3.56-.6 1.2-.1 3.1-2 3.62L461 391c1.27-4.58 2.53-9.17 3.84-13.74.2-.7.28-1.9 1.4-1.52.4.14.66 1.4.56 2.1-.53 3.4-1.2 6.76-1.82 10.14z" class="st5"/>
  <path d="M807.02 392l-.5 3.2c-2.26-1.03-1.76-3.42-2.53-5.2-.9-4.18-1.9-8.36-2.7-12.55-.1-.5.2-1.06.4-1.6.4.44 1.1.8 1.3 1.33 1.4 4.92 2.6 9.87 4 14.82z" class="st3"/>
  <path d="M756.88 416.98l-5.93-13-1.04-3.9.2-.15 1.9 1.13 7 13.94c-.4 1.26 2 2.87-.3 3.78-1.2.46-1.5-.85-1.8-1.8z" class="st6"/>
  <path d="M815.05 387c-.18 3.62-.28 7.26-.6 10.88-.06.86-.93 2.4-1.3 2.35-1.72-.16-1.04-1.73-1.1-2.75-.1-1.82-.03-3.65-.03-5.48l2-11.97c.33 0 .67-.03 1-.04l.03 7z" class="st3"/>
  <path d="M453.02 397l-.1-13c.05-.5-.05-1.1.2-1.46.84-1.3.78-.05.9.4l1.96 8.08c0 1.78.12 3.56-.02 5.33-.1 1.35.8 3.52-.84 3.85-1.75.34-.6-2.58-2.1-3.2z" class="st5"/>
  <path d="M982.02 398c-.17.88.24 2.46-.9 2.37-1.75-.12-1.14-2.37-2.1-3.37l-.1-14.02c.12-.62.1-1.7.4-1.78 1.13-.32.48.75.67 1.18.3.85.6 1.75 1 2.62.3 4.34.6 8.67 1 13z" class="st3"/>
  <path d="M476 390c-.12.1-.28.2-.37.32-1.48 2.23-1.45 5.34-4.03 6.92-1.14-2.73 2.12-4.6 1.42-7.22 2.62-3.84 3.13-8.9 6.96-12.04l.04.04L476 390z" class="st5"/>
  <path d="M794.98 390l1.03 6h-1c-2.3-6-5.8-11.55-7-18l.1-.02c3.9 3.13 4.4 8.2 7 12.03z" class="st3"/>
  <path d="M452.73 378.37c.3.14.7.2.77.4.07.2-.2.53-.3.8-.28-.12-.7-.18-.77-.37-.08-.2.18-.53.3-.83zm362.3 1.63l-1 .03c.12-.75.12-1.86 1.22-1.47.83.3.3 1-.23 1.43z" class="st9"/>
  <path d="M787.98 378l-.4-.23.43.2v.04z" class="st3"/>
  <path d="M591 398l-1 1 1-1z" class="st6"/>
  <path d="M748.9 399l-.37-.26c.16.06.32.1.48.17l-.1.1z" class="st1"/>
  <path d="M590 398.98l-1 1.02 1-1.02zm159.9 1.1c-.32-.37-.66-.7-1-1.08l.1-.1 1.05 1.02-.14.15z" class="st6"/>
  <path d="M479.98 377.98l.25-.4-.2.45-.05-.05z" class="st5"/>
  <path d="M1457.98 410.03c-2.28-1.9-2.1-5.55-4.97-7.02 0-1.4-.6-2.4-2-3v-1.9c6.2-5.4 14-2.9 21-3.8 17.7-2.2 35.5-3.5 53.3-5 10.4-.9 20.8-1.4 31.2-2.2 1.9-.1 4.1.7 5.7-1 2.7 3.2 3.6 7.3 5 11.1-11.1-2.5-22 .9-33 1.4-13.1.6-26.2 2.6-39.4 3.6-4.6.4-9.1 1.1-13.6 2.2-2 .1-1.9 1.6-2 3-2.7-.7-4.5 1.7-6.9 2.1-1.7-1.4-.8-4.5-3.6-5.2l-.3 4.2c-3.5 0-6.9.4-10.1 2zm105.02-29c2.7-3.8 6.4-2.74 10.03-2.03l3.96 15-8.1 1.02-6-14z" class="st9"/>
  <path d="M1577 394l-3.97-15c.48-1.1-1.32-3.72 1.96-3 1.6 6.34 3.3 12.67 4.9 19-.3.52-.6 1.02-1 1.53l-2.1-2.53zm7 1c.35-3.43.64-6.88 1.1-10.3.13-.88.8-1.7 1.22-2.54 1.36.7.62 1.95.65 2.92.1 3.3.03 6.62.03 9.93-.16 2.1-.3 5.2-2.1 5.1-1.82-.1-.5-3.3-.9-5z" class="st3"/>
  <path d="M1563 381.02c1.97 4.67 3.96 9.34 5.94 14-.06 1.2.5 3.04-1.9 1.97-1.44-3.8-2.35-7.9-5.02-11.1l-2.05-8 .05-.1 2.98 3.1z" class="st5"/>
  <path d="M1468.08 408l.3-4.2c2.75.68 1.85 3.85 3.6 5.2l-.38 4.18c-2.8-.63-1.8-3.84-3.52-5.2zm411.95-39l.4-3.2 2.48 1.24c.8 2.65 1.5 5.3 2.2 7.96v.02c-2.1-1.64-3.8-3.6-4.9-6.02z" class="st6"/>
  <path d="M1478.9 406.98c.1-1.4.04-2.9 2.05-2.95 0 .98.15 1.97 0 2.93-.23 1.47.9 4.12-.97 4.14-1.86 0-.6-2.7-1.07-4.12z" class="st3"/>
  <path d="M1885.03 375l.4.23-.43-.2.03-.03z" class="st0"/>
  <path d="M567.8 410.63c1.47-2.25 1.4-5.1 3.62-6.8.17.87.72 1.9.45 2.6-.9 2.33-.62 5.27-3.25 6.76-.27-.9-.54-1.7-.8-2.6z" class="st6"/>
  <path d="M559 408.27c.25-1.2-.45-3.2 1.32-3.2 1.27 0 .7 1.92.65 2.93-.06 1.14.8 3.15-1.06 3.2-1.3.03-.6-1.88-.9-2.93z" class="st3"/>
  <path d="M997 397c-2.92-1-5.94-1.15-9-1 2-5.18 3.43-10.5 4.06-16 3.8-1.18 7.48-1.15 10.96 1.02-1.64 5.35-5.32 10.05-5.03 16V397h-1zm-14.98 1c-.34-4.33-.7-8.66-1.03-13 2.6-.57 5.2-.63 7.9 0-1.3 3.57-2.2 7.2-2 11.05-1.1 2.24-3.1 1.95-5 1.95z" class="st4"/>
  <path d="M987 396.05c-.3-3.85.66-7.48 1.93-11.06.42-2.1.78-4.1 1.3-6.1.16-.7.63-1.7 1.57-.8.35.3.2 1.2.26 1.8-.63 5.5-2.07 10.8-4.05 16h-1zm11 .95c-.3-5.94 3.4-10.64 5.02-16 1-1 1.97-2 2.96-3.03l.04.04-2.06 8-5.97 11.1z" class="st3"/>
  <path d="M509 356h6c-2 1.5-4 1.5-6 0zm1019 0h5c-1.67 1.46-3.33 1.46-5 0zm-1005 0h3c-1 1.25-2 1.25-3 0zm992 0h2c-.67 1-1.33 1-2 0z" class="st11"/>
  <path d="M1005.98 377.98l.25-.4-.2.45-.05-.05z" class="st3"/>
  <path d="M393 352.03c.34-.02.68-.02 1 0v.98l-1-.9zm1253 0h1-1z" class="st11"/>
  <path d="M1075.17 413.98c-.66 1.56-.96 4.58-2.54 4-1.9-.7.18-3.02.43-4.63.23-1.42.66-2.8 1-4.2 3.13-2.45 3.5-6.96 6.9-9.2l.08.1c-.63 5.2-4.23 9.15-5.87 13.93zm215.1-4.98l-3.28-2c-.5-3.08-3.4-5.75-1.6-9.22 3.2 2.05 3.3 5.7 4.5 8.8.3.74.2 1.6.3 2.43zm-7.23-2v2.97l-.07.07c-.32 0-.65-.03-.97-.05l-6.1-9.6c-.52-.9-1.36-1.8-.4-2.6.2-.2 1.7.7 2.2 1.4 1.87 2.5 3.58 5.1 5.34 7.7zm-219.06 0c-.35.92-.65 1.87-1.08 2.75-.6 1.25-.67 3.65-2.3 3.24-1.47-.4-.32-2.6-.54-4 1.68-1.8 1.3-4.9 3.94-6.1h.02l-.04 4z" class="st6"/>
  <path d="M1053.08 407c-.48 1.42.8 4.13-1.05 4.13-1.9 0-.6-2.68-1-4.12.25-.8.47-2.3.77-2.3 1.7-.1.97 1.5 1.28 2.4z" class="st3"/>
  <path d="M1296.98 409h-.98c-.12-2.76-.76-6.03 1.68-7.73 1.94-1.35 1.02.92.86 1.63-.43 2.05-1.03 4.07-1.56 6.1z" class="st6"/>
  <path d="M1312.95 408c-.97.32-1.94.66-2.9 1 .17-1.34-.67-3.32 1.22-3.7 1.93-.38 1.55 1.5 1.68 2.7z" class="st3"/>
  <path d="M1450.93 398.04l.08 1.97-2-1.9h2z" class="st6"/>
  <path d="M1559.97 378.02l-.4-.25.45.2-.05.05z" class="st5"/>
  <path d="M997 397h1v.98l-1-.98z" class="st3"/>
  <path d="M1080.97 399.96l.47-.4-.4.48-.07-.08zM1064 403l.22-.4-.2.4h-.03zm-295.1 9c-.5-2.73-2.97-5.13-1.3-8.2 2.3 2.24 2.87 5.26 3.62 8.18-.76 2.65-1.54 1.16-2.3 0zm682.1-12c1.34.55 2 1.54 2 3-2.06-.08-2.05-1.53-2-3z" class="st6"/>
  <path d="M796 396c.25.33.5.68.73 1.02l-.37.24L796 396z" class="st3"/>
  <path d="M1283.04 409.97l.4.26-.47-.2.07-.06z" class="st6"/>
</svg>
