<svg version="1.1" id="Layer_1" xmlns="http://www.w3.org/2000/svg" xmlns:xlink="http://www.w3.org/1999/xlink" x="0px" y="0px"
	width="2048" height="512" viewBox="0 0 2048 512" style="enable-background:new 0 0 2048 512;" xml:space="preserve">
<style type="text/css">
	.st0{fill:#E6F2F2;}
	.st1{fill:#CCEEF7;}
	.st2{fill:#E2F2F2;}
</style>
<g>
	<g>
		<path class="st0" d="M2049,190c0,107.7,0,215.3,0,323c-682.7,0-1365.3,0-2048,0c0-110.7,0-221.3,0-332c10.5,0,21-0.2,31.5,0.1
			c6.6,0.2,13.4,0.2,19.7,1.8c11.3,2.9,22.3,3.9,33.4-0.5c2.3-0.9,4.8-1.3,7.3-1.3c12.1-0.1,24.2-0.2,36.3,0
			c12,0.2,23.9,0.3,35.9,1.1c8.6,0.6,17,2.2,24.3-4c0.7-0.6,1.9-0.8,2.8-0.9c8.2-0.8,16.4-1.9,24.6-2.1c18.2-0.3,36.3-0.2,54.5-0.1
			c7.6,0,15.4-1.2,22.2,3.5c1,0.7,2.6,0.4,3.9,0.4c18.5-0.3,36.9-0.6,55.4-1c0.8,0,1.7-0.3,2.5-0.2c4.9,0.2,9.8,0.6,14.7,0.7
			c6.6,0.1,13.3,0,20,0.1c4.7,0.1,9.5-0.1,14.2,0.6c5.5,0.8,10.8,3.4,16.3,3.6c12.6,0.6,25.3,0.2,38,0.1c1.5,0,3.7-0.5,4.5-1.5
			c3-4,7-4.4,11.5-4.5c29.3-0.2,58.6-0.6,87.9-1c1.6,0,3.2-0.6,4.8-1c2.7-0.6,5.3-1.9,8-1.9c18.9,0.5,37.8,1.7,56.8,1.8
			c21.6,0.2,43.2-0.8,64.9-0.8c9.3,0,18.5,1.1,27.7,2.1c1.5,0.2,2.8,2.1,4.3,2.9c1.3,0.7,3.1,2,4.1,1.6c2.8-1.1,5.3-3.1,8.1-4.4
			c1.9-0.9,4-1.8,6-1.8c10.1-0.1,20.4,1.2,30.4-0.1c10.4-1.3,20.3-4.5,31-0.8c4.6,1.6,10.2,1.2,15.3,0.9c8.6-0.4,17.1-1.9,25.6,1.2
			c4.5,1.6,9.1,3,13.8,3.9c4.5,0.9,9.3,0.7,13.8,1.6c1.2,0.2,3.2,2.6,3,3.5c-1.1,4.4,1.9,4.7,4.7,5.2c1.8,0.3,3.7-0.1,5.5,0.1
			c1.2,0.2,2.8,0.7,3.2,1.6c0.4,0.9-0.4,2.4-0.9,3.5c-0.4,0.8-1.2,1.4-2.6,2.8c2.4,0.4,3.9,0.9,5.4,1c3.3,0.1,6.7-0.2,10,0.1
			c1.6,0.2,4,1.1,4.5,2.3c1.9,4.6,5.8,8.4,4.8,14.2c-0.5,2.9,1.2,5.8,4.9,6.2c3.4-9,6.7-10.4,16.1-7.3c3.3,1.1,6.6,2.7,10.4,0.5
			c0.8-0.5,3.3,1.5,4.6,2.7c2,1.8,3.3,4.4,5.4,6c3.4,2.7,3.5,6.4-0.5,8.1c-2.2,1-4.6,1.3-6.9,1.9c-0.2,0.5-0.3,1-0.5,1.5
			c1.7,0.7,3.4,2,5.1,2.1c3,0.1,3.7,1.3,4.3,4.1c1.1,5.5-0.3,8.4-6.3,8.2c-0.8,0-1.7,0.1-2.4,0.5c-1.1,0.5-2,1.3-2.9,2
			c1,0.6,2,1.8,3,1.8c5.1,0,10.2,0.4,14.6,3.2c1.6,1.1,2.6,3.2,3.8,4.9c-1.6,1-3.1,2.7-4.8,2.9c-4,0.4-8.1-0.1-4.6,6
			c0.8,1.4,0.4,3.4,0.5,5.7c-4,1.2-7.9,2.3-13.4,3.9c2.9,1.7,4.8,3.8,6.7,3.8c7-0.1,9.4,3.9,10.2,10.5c-2.6,0.7-5.3,1.5-7.9,2.2
			c0.7,2.3,1.4,4.1,1.8,6c1.5,6.2-0.6,8.9-6.8,9c-2.8,0-5.7-0.2-8.5,0.1c-1.3,0.2-2.4,1.4-3.5,2.2c1,1.1,1.9,3,3.1,3.2
			c3.2,0.6,6.6,0.3,9.9,0.7c1.4,0.2,3.8,0.9,4,1.8c0.7,3.5,3.1,2.9,5.3,2.9c12.8,0,25.7-0.7,38.5,0.2c10.3,0.7,20.5,3.1,30.7,5
			c4.7,0.9,7.5,3.4,5.5,8.7c1.3,0.4,2.3,1.1,3.2,0.9c2.5-0.4,5.3-2.4,7.2-1.6c5.7,2.2,8.3-2,11.8-4.6c0.7-0.5,1.9-0.7,2.9-0.6
			c3,0.2,5.9-0.5,5.6-3.9c-0.1-1.2-3.7-2.9-5.8-3c-5.5-0.4-11,0.1-16.5-0.3c-1.7-0.1-3.3-2.1-4.9-3.2c1.6-1.2,3.1-2.5,4.9-3.4
			c0.7-0.4,1.9,0.4,2.9,0.5c3.5,0.1,7,0,11.4,0c-3.5-5.6-7.8-7.1-12.3-6.7c-8.5,0.8-11.8-5.9-17.3-10.2c3.8-3.3,7.2-6.1,10.2-9.1
			c0.6-0.6,0.3-3.1-0.4-3.8c-0.9-0.8-2.8-0.9-4.2-0.9c-12.4-0.1-24.8,0-37.3,0c-5.1,0-10.2,0.2-15.2-0.1c-2.5-0.2-4.9-1.4-8-2.4
			c2.9-1.9,5.5-2.6,6.3-4.3c1.9-3.9,4.5-3.4,7.8-2.6c3,0.7,6.4,1.4,7.7-3.1c0.2-0.7,2-1.6,2.8-1.5c4.5,0.8,9.2,1.5,13.4,3.2
			c2.6,1,4.4,1.3,6.8-0.2c2.2-1.3,4.8-1.8,8.2-2.9c-0.7,1.7-0.8,2.2-1,2.3c-3.8,1.8-4,4.4-2,7.6c2.3,3.6,4.4,1.9,6.9-0.1
			c2.2-1.8,4.3-1.3,6.5,0.9c1.2,1.2,3.9,1.2,5.9,1.1c1-0.1,1.7-2.5,2.7-2.6c5.3-0.7,5.6-3.6,3.5-7.7c7.5-2.3,15.5,1.7,22.2-2.7
			c0.1-0.5,0.1-1,0.2-1.6c-3.2-1-6.3-2-10.1-3.2c5-3.9-2.1-5.2-2.1-10c3,1.1,5.3,2.1,7.7,2.8c2.2,0.6,4.5,1.2,6.7,1.2
			c0.5,0,1.2-2.9,1.3-4.4c0.1-3.5-2.2-3.8-5.1-3.8c-4.9,0-9.8-0.2-14.7-0.4c-12.3-0.4-24.5-1.2-36.8-1.1c-3.7,0-4.6-0.9-4.9-2.8
			c3.1-2.1,5.4-3.8,7.9-5.4c0.9-0.6,2-1.2,3.1-1.3c13.3-0.4,26.6-0.8,39.9-0.9c1.2,0,2.8,1.6,3.5,2.9c1.6,3.3,8.5,6.3,12.5,4.9
			c4.9-1.7,0.2-4.8,1-6.8c1.6-1.4,3.1-2.7,5.2-4.6c-2-0.7-3-1.4-4-1.5c-7.6-0.4-15.2-1-22.9-1c-14.2,0-28.4,0.5-42.7,0.7
			c-2.7,0-5.1-3.6-4.3-6.3c1.3-4.8,5-4.4,8.7-4.5c3.4-0.1,8.4,0.1,9.7-1.8c2.4-3.6,4.8-4.4,8.4-4.3c0.9,0,2.1-0.5,2.7-1.1
			c3.7-4.1,8.6-4,13.4-3.7c4.9,0.3,9.8,0.7,14.7,1c0.1,0.6,0.2,1.2,0.3,1.7c-4.1-0.8-7.7-0.9-7.3,5.7c3.1-0.2,6.1-0.4,9.1-0.5
			c2.9-0.1,5.7-0.1,8.6-0.1c0,2.3,0,4.5,0,6.9c3.2,0.3,6.9,0.6,10.7,1c0,0.6,0,1.2,0,1.8c-1.5,0.8-3,1.6-4.8,2.5
			c3.3,3.3,6.2,6,11.1,6c12.8,0,25.6,0.5,38.4,0.9c3.6,0.1,6.9,0,9.4-3.3c0.7-1,2.2-1.3,3.4-2c3.2-1.9,6.4-3.8,10.8-6.4
			c-3.5-1.7-6.4-2.2-7.2-3.8c-0.7-1.4,0.9-4,1.9-7.4c-8-1.8-16.1-3.6-24.3-5.4c0.1-0.7,0.2-1.5,0.3-2.2c5.1-0.4,10.2-0.8,15.2-1.3
			c0.2-6.6,2.2-8,8.2-6.9c2.4,0.4,4.9-0.1,7.4-0.1c0-0.6-0.1-1.2-0.1-1.8c-4.7,0-9.4,0.2-14.1-0.1c-3.1-0.2-6.1-1.4-9.1-1.3
			c-8,0.1-15.9,0.7-23.9,0.7c-1.9,0-4.2-1.1-5.5-2.5c-1.9-2.2-3.1-5-5-8.3c2.2-0.4,4-0.9,5.8-1c11-0.1,22,0.1,33-0.1
			c4.6-0.1,9.7-2.9,12.2,3.6c0.1,0.3,0.9,0.4,1.4,0.4c9.3,1.5,18.4,4.1,28,3.1c4.6-0.5,9.3-0.3,14,0c2,0.1,5.1,0.6,5.8,1.9
			c3.5,6.5,9.1,6.4,15.1,6c3.6-0.2,7.2-0.4,10.7-1c2.5-0.4,4.9-1.8,7.4-1.9c5.1-0.3,10.3,0,15.5-0.1c5.2-0.1,6.1-1.8,4.4-6.6
			c-0.6-1.7-0.3-3.9,0.2-5.8c1-3.5,1.4-6.3-3.4-6.9c-0.6-0.1-1.5-1.4-1.4-1.7c0.3-0.8,1.1-1.7,1.9-1.9c1.3-0.3,2.7,0,4-0.2
			c11.9-2.1,23.8-3.8,36-3.1c0.9,0.1,1.8-0.7,2.8-1c4.4-1,8.9-2.5,13.4-2.8c4.7-0.3,9.6,0.7,14.4,1c6.4,0.4,12.6,3.5,13.7,8.9
			c1.4,6.6,5.1,4.8,8.5,4.9c11.3,0.2,22.7,0.1,34,0.1c11.4,0,8.6,0.8,12.3-8.5c1.5-3.8,3.2-3.5,6.3-3.3c3.5,0.3,7.3,0.3,10.7-0.6
			c4.9-1.3,6.5-0.7,6.5,4.5c0.1,4,1.2,5.1,5.5,4.3c7.3-1.3,14.7-1.7,22.1-2.5c2.1-0.2,4.2-0.7,6.3-0.9c2.4-0.3,4.8-0.6,7.2-0.5
			c5.8,0.3,11.6,1.6,17.3,1.2c3.8-0.3,7.3-2,11.6-1.9c57.7,1.3,115.5-2,173.1,2.1c4.1,0.3,8.3-0.2,12.5,0.1
			c4.1,0.3,8.1,1.2,12.2,1.7c7.5,0.8,15.3,4.9,22.2-1.7c0.6-0.5,1.5-0.8,2.3-0.8c6.9-0.1,13.8-0.1,20.8-0.3c2,0,3.9-0.7,5.8-0.9
			c3.1-0.3,6.4-1.3,9.3-0.7c9.6,2,19,2.6,28.6,0c1.8-0.5,3.9,0,5.8,0.5c14.9,4.1,29.7,10.1,45.5,3.4c1.4-0.6,3.3-0.2,5-0.2
			c27.2,0,54.3,0.6,81.5-0.2c14.6-0.4,29.6,3.6,44.1-3c4-1.8,9.9-0.1,14.7,0.9c12.3,2.8,24.7,5.3,37.4,4.3c4.1-0.3,8.3-0.2,12.5,0
			c2.4,0.1,4.7,0.6,7.1,0.9c-0.4,0.6-0.7,1.1-1.1,1.7c1.1,1.1,2,3.1,3.2,3.2C2034.5,188.8,2041.8,189.3,2049,190z M1148.1,251.6
			c-2.8-3.9-45-5.1-52.3-2.4c2.2,4.1,5,7,9.9,6.7c9.4-0.6,18.8-1.2,28.1-2C1138.4,253.5,1142.8,252.5,1148.1,251.6z M1282.8,451.7
			c6.2,8-1.9,9.2-6.2,12.7c10.3,0,19.5,0,28.8,0c-4.2-1.8-7.8-3.5-5.9-9.1c-4.7-0.9-10.2,1.3-12.2-5.1
			C1285.9,450.7,1284.7,451.1,1282.8,451.7z M1308.6,369.7c3.7,5.1,7.2,9.9,10.6,14.6c2.6-1.6,4.3-2.6,6-3.6
			c-0.4-3.5-0.7-6.9-1.3-10.3c-0.1-0.8-0.9-2-1.5-2.1C1317.6,367.2,1312.7,365.4,1308.6,369.7z M1578.8,327.4c0,0.5,0,1.1,0,1.6
			c4.1,0,8.2-0.1,12.2,0c13,0.5,26.1,1.3,39.1,1.7c1.8,0.1,3.6-1.4,5.5-2.1c-0.2-0.4-0.4-0.8-0.5-1.2
			C1616.3,327.4,1597.5,327.4,1578.8,327.4z M1402.9,464.3c-18.2,0-36.3,0-54.5,0C1366.5,466.3,1384.7,466.4,1402.9,464.3z
			 M1635.3,338c0.1,0.6,0.2,1.2,0.2,1.9c13.9,0,27.9,0,41.8,0c-0.7-1.4-2.2-2.8-3.7-2.8c-11.5-0.2-23-0.1-34.5-0.1
			C1637.9,337.1,1636.6,337.7,1635.3,338z M1118.6,447.2c7.2-0.6,13.4-1,20-1.5C1134.4,440.8,1121.8,441.3,1118.6,447.2z
			 M1103,464.2c0-0.4,0-0.8,0-1.2c-11.1,0-22.1,0-33.2,0c0,0.4,0,0.8,0,1.2C1080.9,464.2,1091.9,464.2,1103,464.2z M1667.2,196.4
			c-4.8-3.4-21.2-2.9-23.8,0C1651.5,196.4,1659.4,196.4,1667.2,196.4z M1158.9,246.2c3.2,3.4,11.3,5,13.7,3.3c0.5-0.3,1-1.2,0.9-1.5
			c-0.2-0.7-0.9-1.6-1.5-1.7C1167.9,246.2,1163.7,246.2,1158.9,246.2z M1408,463.4c0,0.3,0,0.5,0,0.8c8.3,0,16.5,0,24.8,0
			c0-0.3,0-0.5,0-0.8C1424.5,463.4,1416.3,463.4,1408,463.4z M1015.7,369.4c0,0.4,0,0.7,0,1.1c5.8,0,11.6,0,17.3,0
			c0-0.4,0-0.7,0-1.1C1027.2,369.4,1021.5,369.4,1015.7,369.4z M1894.4,448.2c-7.2-0.4-15.7-0.9-24.1-1.3c0,0.4,0,0.9,0,1.3
			C1878.7,448.2,1887.2,448.2,1894.4,448.2z M1175.9,234.4c0.3-0.6,0.7-1.2,1-1.9c-1.9-1-3.9-2-5.8-2.9
			C1170.6,234.7,1172.4,235.9,1175.9,234.4z M1036.1,367.6c0,0.3,0,0.7-0.1,1c4.3,0,8.7,0,13,0c0-0.3,0-0.7,0-1
			C1044.7,367.6,1040.4,367.6,1036.1,367.6z M1349.8,193.8c2.2,1,3.5,2.1,4.6,2c0.9-0.1,1.6-1.5,2.5-2.4c-1.1-0.8-2.1-2-3.2-2.1
			C1352.8,191.1,1351.7,192.4,1349.8,193.8z M1493,455.8c-0.5-0.1-1-0.2-1.5-0.3c-0.7,2.3-1.4,4.5-2.1,6.8c0.5,0.2,1,0.3,1.5,0.5
			C1491.6,460.5,1492.3,458.2,1493,455.8z M1949.7,447.7c0-0.2,0.1-0.3,0.1-0.5c-1.9,0-3.7,0-5.6,0c0,0.2,0,0.3,0,0.5
			C1946,447.7,1947.8,447.7,1949.7,447.7z M1773.2,180.4c-0.1,0-0.2-0.1-0.4-0.1c0,0.1-0.1,0.3-0.1,0.3c0.1,0.1,0.2,0.1,0.4,0.1
			C1773.2,180.6,1773.2,180.5,1773.2,180.4z"/>
		<path class="st1" d="M1,114C1,76.3,1,38.7,1,1c73.7,0,147.3,0,221,0c0.1,1.4,0.1,2.8,0.2,4.2c0.3,0.1,0.7,0.3,1,0.4
			c0.9-1.5,1.9-3.1,2.8-4.6c11.7,0,23.3,0,35,0c0.2,0.8,0.4,1.7,0.6,2.5c0.3,0,0.5,0,0.8,0c0.2-0.9,0.4-1.7,0.6-2.6
			c458,0,916,0,1374,0c1.3,0,2.7,0,4,0c45,0,90,0,135,0c-1.4,6.1-2.5,12.3-4.3,18.3c-2.5,8.1-1.6,15.5,3.6,22.1
			c3.1,3.9,8.9,5.9,12.3,4.1c-0.8-0.2-1.4-0.4-2-0.6c-7.9-2.5-13.6-14.6-11.5-20.2c2.9-7.7,4.7-15.8,7-23.8c6.7,0,13.3,0,20,0
			c-0.5,3.8-1.6,7.7-1.4,11.5c0.1,3.1,0.8,7,2.8,9c3.9,3.9,3.7,7.3,1.1,11.3c-0.6,1-1.3,2-2,3c0.3,0.4,0.6,0.8,0.9,1.2
			c1.5-0.9,4-1.6,4.3-2.8c0.7-4,1.2-8.1,0.6-12.1c-1-7.1-2.8-14.1-4.3-21.1c3,0,6,0,9,0c1.4,8.7,2.8,17.3,4.1,25.7
			c0.6-0.2,2.5-1.3,2.7-1c1.2,1.5,2,3.3,3.3,5.7c0.3-2.8,1-5.1,0.8-7.4c-0.8-7.7-1.9-15.4-2.9-23.1c76.3,0,152.7,0,229,0
			c0,38.3,0,76.7,0,115c-13.8,0-27.7-0.4-41.5,0.2c-7.5,0.3-15,2.6-21.7-2.9c-1-0.8-3.2-0.2-4.9-0.3c-1.5-0.1-3.2,0.2-4.4-0.4
			c-8.9-4.8-19-1.3-28.2-4.5c-4.9-1.7-10.2-2.4-15.4-3.1c-7.6-1-15.3-1.7-22.9-2.1c-4.8-0.2-9.5-0.4-12.7-4.3
			c-2.8-3.5-6.4-4.8-10.5-4.5c-5.6,0.4-11.1,1.8-16.7,1.8c-23.1-0.1-46.2-0.7-69.4-0.8c-10.1-0.1-20.3,0.6-30.4,0.9
			c-4.2,0.1-8.3,0-12.5,0c-3.8,0-7.5,0.3-11.3,0c-4.7-0.3-9.4-1.6-14.1-1.6c-5.3,0-10.5,1.4-15.8,1.5c-31.7,0.2-63.3,0-95,0.1
			c-7.2,0-13.6-2.9-21.2-2.5c-35.1,2-70.4-1.2-105.6,2.2c-14.9,1.4-30-1.2-45-2.1c-30.7-1.7-61.5,0-92.3,0.4c-1,0-2,0.2-3,0.3
			c-7.7,0.9-15.4,2.5-23.1,2.5c-14.6-0.1-29.2-1.7-43.8-1.7c-18.8,0.1-37.5,1.6-56.3,1.7c-21.8,0.1-43.6-0.8-65.4-0.8
			c-19,0-37.9,0.6-56.9,0.9c-7.8,0.1-15.5-0.1-23.3,0.1c-2,0.1-5.1,1-5.7,2.3c-1.4,3.2-3.3,3.5-6.2,3.6c-5.9,0.2-12.5-2.1-16.4,4.9
			c-0.3,0.6-1.8,0.8-2.7,0.9c-4,0.4-7.9,0.9-11.9,1c-6,0.2-9-2.6-10-8.5c-0.6-3.4-3.5-5.1-5.8-2.7c-4.8,5-10.8,4.4-16.6,5.2
			c-3.4,0.5-5.8,1.6-6.8,5.4c-0.9,3.4-5,4.5-8.1,2.7c-5-2.9-9-0.9-10.9,4.8c-0.7,2-3.2,4.4-5.3,4.9c-9.5,2-19.2,3.4-28.8,5
			c-11.3,1.9-16.7-1.1-20.9-11.5c-0.4-1.1-2.4-2.6-2.9-2.4c-4,1.8-3.7-0.9-3.9-3.3c-0.1-1.4-0.3-2.9-0.3-2.9
			c-3.3-2.2-6.3-3.3-7.6-5.4c-2.7-4.3-6.4-4.6-10.7-4.4c-2.5,0.1-4.9-0.6-7.4-0.7c-1.6-0.1-3.8-0.4-4.8,0.4
			c-4.4,3.6-8.8,1.6-13.2,0.4c-1.3-0.3-2.6-1.1-3.8-1c-18.6,1.7-37.1-2.6-56,0.5c-15.8,2.6-32.2,1.5-48.3,1.3
			c-13.9-0.1-27.8-1.3-41.8-1.8c-4.9-0.2-9.9,0.9-14.9,0.9c-15.1-0.2-30.3-0.8-45.4-0.9c-34.7-0.1-69.3-0.1-104,0
			c-2.1,0-4.3,0.6-6.4,0.6c-7.9-0.2-15.9-0.3-23.8-0.8c-2.9-0.2-5.7-1.7-8.6-1.7c-35.3-0.1-70.7-0.1-106-0.1c-4,0-7.9-0.8-11.9-0.8
			c-3.1-0.1-6.3,0.2-9.3,0.7c-3.2,0.5-6.3,2.1-9.5,2.1c-59.7,0.1-119.3,0.1-179,0.2c-4.9,0-9.8,1.7-14.7,1.8
			c-3.7,0.1-7.1-0.7-9.1,3.6c-0.4,0.9-2.6,1.4-3.9,1.5c-12.8,0.4-25.6,1.2-38.4,1c-24.8-0.4-49.5-1.1-74.3-2
			c-5.9-0.2-11.9-0.8-17.6-2.4c-11.8-3.3-22.2-3.1-29.8,8.1c-0.7,1.1-1.7,2.1-2.3,3.2c-1.7,3.5-4.4,4.6-8.1,4.2
			C8.6,114.5,4.8,114.3,1,114z M1655,25c0.1-0.1,0.1-0.3,0.2-0.4C1655.1,24.7,1655.1,24.9,1655,25c-0.1,0.1-0.1,0.2-0.2,0.4
			C1654.9,25.3,1654.9,25.1,1655,25z M2018,21c-8.4,1.7-16.8,3.4-25.2,5.2c-3.4,0.7-6.8,1.7-10.1,2.5c0.1,0.5,0.2,0.9,0.3,1.4
			c4.3-0.7,8.7-1.1,12.9-2.2C2003.4,25.8,2010.6,23.3,2018,21c0.3-0.2,0.7-0.5,1-0.7C2018.7,20.5,2018.3,20.8,2018,21z M1523.9,11.8
			c-0.2,0.6-0.4,1.3-0.5,1.9c28.5,13.6,57.6,24.1,90.1,23.3c23.4-0.6,84.2-11.8,91.6-17.7c-0.1-0.1-0.3-0.3-0.4-0.2
			c-26.3,4.8-51.9,13.3-79.1,14.2c-13.5,0.5-26.8,0-40.1-1.9c-19.7-2.8-38.1-10-56.1-18.3C1527.6,12.4,1525.7,12.3,1523.9,11.8z
			 M339.8,20.2c-0.1,0.4-0.1,0.9-0.2,1.3c45.3,13.8,90.8,22.9,137.9,8.2c13.3-4.2,26.2-9.3,38.1-16.8c-1.9-0.4-3.6-0.1-5.2,0.5
			c-6,2.5-11.9,5.3-17.9,7.6c-17.4,6.8-35.4,10.8-54.1,12.3c-15.7,1.2-31.2,0.3-46.5-2.2c-13.6-2.2-26.9-5.5-40.4-8.4
			C347.5,21.8,343.7,21,339.8,20.2z M18.8,11.9c-0.2,0.6-0.4,1.2-0.6,1.8c23.5,12.6,48.6,20.8,75.3,23.1c16.6,1.5,42.8-3.3,46.3-7.5
			c-7.7,1-14.9,2.4-22.2,2.8c-10.5,0.6-21.2,1.7-31.6,0.4c-19.8-2.4-38.9-8.1-56.9-16.9C25.9,14.1,22.3,13.1,18.8,11.9z M868.2,11.9
			c-0.3,0.6-0.5,1.2-0.8,1.8c0.9,0.6,1.7,1.5,2.6,1.9c12.5,4.9,25,9.9,37.6,14.5c7,2.6,14.2,4.7,21.8,1.9
			c13.8-5.1,27.7-10.1,41.5-15.3c2-0.7,3.8-1.9,5.7-2.9c-0.2-0.5-0.4-1-0.6-1.5c-1.9,0.5-3.9,0.9-5.7,1.6
			c-10.5,4.1-20.9,8.6-31.6,12.2c-7.4,2.5-15,5.7-23.2,2.9c-12-4.2-24.1-8.5-36.1-12.7C875.7,14.9,872,13.3,868.2,11.9z
			 M1938.1,14.4c-0.4-0.9-0.8-1.8-1.2-2.8c-18.7,8.3-38.3,14.5-56.6,23.8c0.3,0.7,0.6,1.4,0.9,2.1
			C1900.2,29.8,1919.1,22.1,1938.1,14.4z M1617,18.5c7.6,2.3,15.1,1.9,16.3,0C1627.9,18.5,1622.4,18.5,1617,18.5z M1599.1,18.5
			c0,0.4-0.1,0.8-0.1,1.3c4.3,0,8.7,0,13,0c0-0.4,0-0.8,0.1-1.3C1607.7,18.5,1603.4,18.5,1599.1,18.5z M1809.8,41.2
			c-3.4,1.7-6.7,3.3-10.1,5C1803.7,45.8,1808.2,46.7,1809.8,41.2z M265.6,21.4c0.5-0.2,1-0.3,1.5-0.5c-0.7-2-1.4-4.1-2.1-6.1
			c-0.4,0.1-0.8,0.3-1.3,0.4C264.3,17.3,265,19.4,265.6,21.4z M1860.2,40.9c0-0.5,0-1,0.1-1.5c-1.7,0-3.4,0-5.1,0
			c0,0.3-0.1,0.6-0.1,0.9C1856.8,40.5,1858.5,40.7,1860.2,40.9z M147.6,21.4c-0.2-0.4-0.3-0.8-0.5-1.3c-1.5,0.6-2.9,1.2-4.4,1.8
			c0.2,0.4,0.3,0.8,0.5,1.2C144.7,22.5,146.2,21.9,147.6,21.4z M1790.9,46.7c0,0.3,0,0.6,0,0.9c1.4,0,2.8,0,4.2,0c0-0.3,0-0.6,0-0.9
			C1793.7,46.7,1792.3,46.7,1790.9,46.7z M1624.6,28.9c0.1-0.2,0.1-0.3,0.2-0.5c-2.1,0-4.3,0-6.4,0c0,0.2,0,0.3,0,0.5
			C1620.5,28.9,1622.5,28.9,1624.6,28.9z M235.1,20.8c0.3,0.2,0.6,0.4,0.9,0.6c0.4-0.9,0.8-1.8,1.2-2.7c-0.3-0.1-0.5-0.2-0.8-0.3
			C236,19.2,235.6,20,235.1,20.8z"/>
		<path class="st2" d="M1,114c3.8,0.3,7.6,0.5,11.4,1c3.7,0.5,6.4-0.7,8.1-4.2c0.6-1.2,1.6-2.1,2.3-3.2c7.6-11.3,18-11.4,29.8-8.1
			c5.6,1.6,11.7,2.2,17.6,2.4c24.7,0.9,49.5,1.6,74.3,2c12.8,0.2,25.6-0.5,38.4-1c1.4,0,3.5-0.5,3.9-1.5c2-4.3,5.4-3.5,9.1-3.6
			c4.9-0.1,9.8-1.8,14.7-1.8c59.7-0.1,119.3-0.1,179-0.2c3.1,0,6.3-1.6,9.5-2.1c3.1-0.5,6.2-0.7,9.3-0.7c4,0.1,7.9,0.8,11.9,0.8
			c35.3,0.1,70.7,0,106,0.1c2.9,0,5.7,1.6,8.6,1.7c7.9,0.5,15.8,0.6,23.8,0.8c2.1,0,4.3-0.6,6.4-0.6c34.7,0,69.3-0.1,104,0
			c15.1,0.1,30.3,0.7,45.4,0.9c5,0.1,9.9-1,14.9-0.9c13.9,0.4,27.8,1.6,41.8,1.8c16.1,0.1,32.5,1.3,48.3-1.3
			c18.9-3.1,37.4,1.3,56-0.5c1.2-0.1,2.5,0.6,3.8,1c4.4,1.2,8.7,3.3,13.2-0.4c1-0.8,3.2-0.5,4.8-0.4c2.5,0.1,4.9,0.8,7.4,0.7
			c4.3-0.2,8,0.2,10.7,4.4c1.3,2.1,4.3,3.1,7.6,5.4c0,0.1,0.1,1.5,0.3,2.9c0.2,2.3-0.1,5.1,3.9,3.3c0.5-0.2,2.5,1.3,2.9,2.4
			c4.2,10.4,9.6,13.4,20.9,11.5c9.6-1.6,19.3-3,28.8-5c2.1-0.4,4.6-2.8,5.3-4.9c2-5.7,5.9-7.7,10.9-4.8c3.1,1.8,7.2,0.7,8.1-2.7
			c1-3.8,3.4-4.9,6.8-5.4c5.8-0.9,11.8-0.3,16.6-5.2c2.3-2.4,5.2-0.7,5.8,2.7c1,5.9,4.1,8.6,10,8.5c4-0.1,7.9-0.6,11.9-1
			c1-0.1,2.4-0.3,2.7-0.9c3.9-7.1,10.6-4.8,16.4-4.9c2.9-0.1,4.9-0.5,6.2-3.6c0.6-1.4,3.7-2.3,5.7-2.3c7.7-0.3,15.5,0,23.3-0.1
			c19-0.3,37.9-0.9,56.9-0.9c21.8,0,43.6,1,65.4,0.8c18.8-0.1,37.5-1.7,56.3-1.7c14.6-0.1,29.2,1.6,43.8,1.7
			c7.7,0,15.4-1.6,23.1-2.5c1-0.1,2-0.3,3-0.3c30.8-0.3,61.7-2.1,92.3-0.4c15,0.9,30.1,3.5,45,2.1c35.2-3.3,70.5-0.1,105.6-2.2
			c7.6-0.4,14,2.5,21.2,2.5c31.7-0.1,63.3,0,95-0.1c5.3,0,10.5-1.5,15.8-1.5c4.7,0,9.4,1.3,14.1,1.6c3.7,0.3,7.5,0,11.3,0
			c4.2,0,8.3,0.1,12.5,0c10.1-0.3,20.3-1,30.4-0.9c23.1,0.1,46.2,0.7,69.4,0.8c5.5,0,11.1-1.4,16.7-1.8c4.1-0.3,7.7,1,10.5,4.5
			c3.2,4,7.9,4.1,12.7,4.3c7.7,0.4,15.3,1.1,22.9,2.1c5.2,0.7,10.5,1.4,15.4,3.1c9.2,3.1,19.3-0.3,28.2,4.5c1.2,0.6,2.9,0.3,4.4,0.4
			c1.7,0.1,3.9-0.6,4.9,0.3c6.7,5.6,14.2,3.2,21.7,2.9c13.8-0.6,27.7-0.2,41.5-0.2c0,24.7,0,49.3,0,74c-7.2-0.7-14.5-1.2-21.7-2.1
			c-1.2-0.2-2.1-2.1-3.2-3.2c0.4-0.6,0.7-1.1,1.1-1.7c-2.4-0.3-4.7-0.9-7.1-0.9c-4.2-0.2-8.3-0.3-12.5,0
			c-12.8,0.9-25.1-1.6-37.4-4.3c-4.8-1.1-10.7-2.7-14.7-0.9c-14.5,6.6-29.4,2.5-44.1,3c-27.1,0.8-54.3,0.2-81.5,0.2
			c-1.7,0-3.5-0.4-5,0.2c-15.8,6.7-30.6,0.7-45.5-3.4c-1.9-0.5-4-1-5.8-0.5c-9.6,2.6-19,2-28.6,0c-2.9-0.6-6.2,0.4-9.3,0.7
			c-2,0.2-3.9,0.8-5.8,0.9c-6.9,0.2-13.8,0.1-20.8,0.3c-0.8,0-1.8,0.3-2.3,0.8c-7,6.6-14.7,2.4-22.2,1.7c-4.1-0.4-8.1-1.4-12.2-1.7
			c-4.1-0.3-8.3,0.2-12.5-0.1c-57.7-4.1-115.4-0.9-173.1-2.1c-4.3-0.1-7.8,1.7-11.6,1.9c-5.7,0.4-11.5-0.8-17.3-1.2
			c-2.4-0.1-4.8,0.3-7.2,0.5c-2.1,0.2-4.2,0.7-6.3,0.9c-7.4,0.8-14.8,1.2-22.1,2.5c-4.2,0.8-5.4-0.4-5.5-4.3
			c-0.1-5.2-1.6-5.7-6.5-4.5c-3.4,0.9-7.1,0.9-10.7,0.6c-3.1-0.3-4.8-0.5-6.3,3.3c-3.6,9.3-0.9,8.5-12.3,8.5
			c-11.3,0-22.7,0.1-34-0.1c-3.5,0-7.2,1.7-8.5-4.9c-1.1-5.4-7.3-8.5-13.7-8.9c-4.8-0.3-9.6-1.3-14.4-1c-4.5,0.3-8.9,1.8-13.4,2.8
			c-1,0.2-1.9,1-2.8,1c-12.2-0.7-24.1,1-36,3.1c-1.3,0.2-2.7-0.1-4,0.2c-0.8,0.2-1.6,1.1-1.9,1.9c-0.1,0.3,0.8,1.6,1.4,1.7
			c4.8,0.6,4.3,3.4,3.4,6.9c-0.5,1.8-0.8,4.1-0.2,5.8c1.7,4.7,0.8,6.4-4.4,6.6c-5.2,0.1-10.3-0.2-15.5,0.1c-2.5,0.2-4.9,1.5-7.4,1.9
			c-3.5,0.5-7.2,0.7-10.7,1c-5.9,0.4-11.6,0.5-15.1-6c-0.7-1.3-3.8-1.8-5.8-1.9c-4.6-0.3-9.4-0.5-14,0c-9.6,1-18.7-1.6-28-3.1
			c-0.5-0.1-1.3-0.1-1.4-0.4c-2.6-6.5-7.6-3.7-12.2-3.6c-11,0.3-22,0-33,0.1c-1.8,0-3.6,0.6-5.8,1c2,3.4,3.1,6.2,5,8.3
			c1.2,1.4,3.6,2.5,5.5,2.5c8,0,15.9-0.7,23.9-0.7c3,0,6.1,1.2,9.1,1.3c4.7,0.2,9.4,0.1,14.1,0.1c0,0.6,0.1,1.2,0.1,1.8
			c-2.5,0.1-5,0.5-7.4,0.1c-6-1-8,0.3-8.2,6.9c-5,0.4-10.1,0.8-15.2,1.3c-0.1,0.7-0.2,1.5-0.3,2.2c8.2,1.8,16.3,3.6,24.3,5.4
			c-1,3.4-2.6,6-1.9,7.4c0.8,1.6,3.7,2.1,7.2,3.8c-4.3,2.6-7.6,4.5-10.8,6.4c-1.1,0.7-2.6,1-3.4,2c-2.5,3.3-5.8,3.4-9.4,3.3
			c-12.8-0.4-25.6-0.9-38.4-0.9c-5,0-7.8-2.6-11.1-6c1.8-1,3.3-1.7,4.8-2.5c0-0.6,0-1.2,0-1.8c-3.7-0.3-7.5-0.7-10.7-1
			c0-2.4,0-4.6,0-6.9c-2.9,0-5.7,0-8.6,0.1c-3,0.1-6,0.3-9.1,0.5c-0.4-6.6,3.2-6.6,7.3-5.7c-0.1-0.6-0.2-1.2-0.3-1.7
			c-4.9-0.3-9.8-0.7-14.7-1c-4.9-0.3-9.7-0.4-13.4,3.7c-0.6,0.7-1.8,1.1-2.7,1.1c-3.7-0.1-6.1,0.7-8.4,4.3c-1.3,1.9-6.3,1.7-9.7,1.8
			c-3.8,0.1-7.4-0.3-8.7,4.5c-0.7,2.8,1.6,6.4,4.3,6.3c14.2-0.3,28.4-0.7,42.7-0.7c7.6,0,15.3,0.6,22.9,1c1,0.1,2,0.7,4,1.5
			c-2.1,1.9-3.6,3.2-5.2,4.6c-0.8,2.1,3.9,5.2-1,6.8c-3.9,1.3-10.8-1.6-12.5-4.9c-0.6-1.3-2.3-2.9-3.5-2.9
			c-13.3,0.1-26.6,0.5-39.9,0.9c-1,0-2.2,0.7-3.1,1.3c-2.5,1.6-4.8,3.3-7.9,5.4c0.3,1.9,1.2,2.8,4.9,2.8c12.2-0.1,24.5,0.6,36.8,1.1
			c4.9,0.2,9.8,0.4,14.7,0.4c2.8,0,5.2,0.4,5.1,3.8c-0.1,1.6-0.8,4.4-1.3,4.4c-2.2,0.1-4.5-0.5-6.7-1.2c-2.4-0.7-4.7-1.7-7.7-2.8
			c0,4.7,7.1,6,2.1,10c3.8,1.2,6.9,2.2,10.1,3.2c-0.1,0.5-0.1,1-0.2,1.6c-6.7,4.4-14.7,0.4-22.2,2.7c2.1,4.1,1.8,7-3.5,7.7
			c-1,0.1-1.7,2.5-2.7,2.6c-2,0.1-4.7,0.1-5.9-1.1c-2.2-2.2-4.3-2.7-6.5-0.9c-2.4,2-4.5,3.7-6.9,0.1c-2.1-3.2-1.8-5.9,2-7.6
			c0.2-0.1,0.3-0.6,1-2.3c-3.4,1.2-6.1,1.6-8.2,2.9c-2.5,1.5-4.2,1.2-6.8,0.2c-4.2-1.7-8.9-2.4-13.4-3.2c-0.9-0.2-2.6,0.7-2.8,1.5
			c-1.3,4.4-4.7,3.8-7.7,3.1c-3.3-0.8-5.9-1.3-7.8,2.6c-0.8,1.6-3.4,2.4-6.3,4.3c3.1,1,5.5,2.2,8,2.4c5.1,0.3,10.2,0.1,15.2,0.1
			c12.4,0,24.8,0,37.3,0c1.5,0,3.3,0.1,4.2,0.9c0.8,0.7,1,3.2,0.4,3.8c-3,3.1-6.4,5.8-10.2,9.1c5.6,4.3,8.9,11,17.3,10.2
			c4.5-0.4,8.8,1.1,12.3,6.7c-4.4,0-7.9,0-11.4,0c-1,0-2.2-0.8-2.9-0.5c-1.7,0.9-3.3,2.2-4.9,3.4c1.6,1.1,3.2,3,4.9,3.2
			c5.5,0.4,11-0.1,16.5,0.3c2.1,0.2,5.7,1.8,5.8,3c0.3,3.3-2.6,4-5.6,3.9c-1-0.1-2.1,0.1-2.9,0.6c-3.5,2.5-6,6.8-11.8,4.6
			c-1.9-0.7-4.8,1.2-7.2,1.6c-0.9,0.2-1.9-0.5-3.2-0.9c2-5.3-0.9-7.9-5.5-8.7c-10.2-1.9-20.4-4.3-30.7-5
			c-12.8-0.9-25.6-0.2-38.5-0.2c-2.3,0-4.7,0.5-5.3-2.9c-0.2-0.8-2.5-1.6-4-1.8c-3.3-0.4-6.7-0.1-9.9-0.7c-1.2-0.2-2.1-2.1-3.1-3.2
			c1.2-0.8,2.3-2.1,3.5-2.2c2.8-0.3,5.7-0.1,8.5-0.1c6.2-0.1,8.3-2.8,6.8-9c-0.5-1.9-1.1-3.8-1.8-6c2.6-0.7,5.3-1.5,7.9-2.2
			c-0.8-6.6-3.2-10.6-10.2-10.5c-1.9,0-3.8-2.1-6.7-3.8c5.6-1.6,9.4-2.8,13.4-3.9c-0.2-2.3,0.2-4.3-0.5-5.7c-3.5-6.1,0.6-5.6,4.6-6
			c1.7-0.2,3.2-1.9,4.8-2.9c-1.3-1.7-2.2-3.8-3.8-4.9c-4.4-2.9-9.5-3.2-14.6-3.2c-1,0-2-1.2-3-1.8c1-0.7,1.9-1.5,2.9-2
			c0.7-0.4,1.6-0.5,2.4-0.5c6,0.3,7.4-2.7,6.3-8.2c-0.6-2.8-1.3-4.1-4.3-4.1c-1.7,0-3.4-1.3-5.1-2.1c0.2-0.5,0.3-1,0.5-1.5
			c2.3-0.6,4.8-0.9,6.9-1.9c4-1.8,3.9-5.4,0.5-8.1c-2.1-1.6-3.4-4.2-5.4-6c-1.3-1.3-3.9-3.2-4.6-2.7c-3.8,2.3-7.1,0.6-10.4-0.5
			c-9.4-3.1-12.7-1.7-16.1,7.3c-3.8-0.4-5.4-3.3-4.9-6.2c1-5.8-2.9-9.7-4.8-14.2c-0.5-1.2-2.9-2.1-4.5-2.3c-3.3-0.4-6.7,0-10-0.1
			c-1.5-0.1-3-0.5-5.4-1c1.4-1.5,2.2-2,2.6-2.8c0.5-1.1,1.3-2.6,0.9-3.5c-0.4-0.8-2-1.4-3.2-1.6c-1.8-0.3-3.7,0.1-5.5-0.1
			c-2.8-0.4-5.8-0.7-4.7-5.2c0.2-0.9-1.8-3.3-3-3.5c-4.5-0.8-9.3-0.7-13.8-1.6c-4.7-0.9-9.3-2.3-13.8-3.9c-8.5-3.1-17-1.6-25.6-1.2
			c-5.1,0.2-10.6,0.7-15.3-0.9c-10.7-3.7-20.6-0.5-31,0.8c-10,1.3-20.2,0-30.4,0.1c-2,0-4.1,0.9-6,1.8c-2.8,1.3-5.3,3.3-8.1,4.4
			c-1,0.4-2.8-0.8-4.1-1.6c-1.5-0.9-2.8-2.8-4.3-2.9c-9.2-0.9-18.5-2.1-27.7-2.1c-21.6,0-43.3,0.9-64.9,0.8
			c-18.9-0.1-37.8-1.3-56.8-1.8c-2.6-0.1-5.3,1.2-8,1.9c-1.6,0.4-3.2,1-4.8,1c-29.3,0.4-58.6,0.8-87.9,1c-4.5,0-8.5,0.5-11.5,4.5
			c-0.8,1-2.9,1.5-4.5,1.5c-12.7,0.1-25.3,0.4-38-0.1c-5.5-0.2-10.8-2.8-16.3-3.6c-4.7-0.7-9.5-0.5-14.2-0.6c-6.7-0.1-13.3,0-20-0.1
			c-4.9-0.1-9.8-0.5-14.7-0.7c-0.8,0-1.6,0.2-2.5,0.2c-18.5,0.3-36.9,0.7-55.4,1c-1.3,0-3,0.2-3.9-0.4c-6.9-4.7-14.7-3.5-22.2-3.5
			c-18.2-0.1-36.3-0.2-54.5,0.1c-8.2,0.1-16.4,1.3-24.6,2.1c-1,0.1-2.1,0.3-2.8,0.9c-7.3,6.3-15.8,4.6-24.3,4
			c-11.9-0.8-23.9-0.9-35.9-1.1c-12.1-0.2-24.2-0.1-36.3,0c-2.4,0-5,0.4-7.3,1.3c-11.1,4.4-22.1,3.4-33.4,0.5
			c-6.3-1.6-13.1-1.6-19.7-1.8C22,180.8,11.5,181,1,181C1,158.7,1,136.3,1,114z M176.3,177.3c0-0.6,0-1.2,0-1.7
			c-1.7-0.8-3.5-2.4-5.1-2.3c-1.4,0.1-2.7,2.1-4.1,3.3c1.5,1.1,3,3,4.7,3.2C173.2,179.9,174.8,178.2,176.3,177.3z"/>
		<path class="st2" d="M1820,1c1,7.7,2.1,15.4,2.9,23.1c0.2,2.2-0.5,4.5-0.8,7.4c-1.3-2.4-2.1-4.2-3.3-5.7c-0.2-0.3-2.1,0.7-2.7,1
			c-1.3-8.4-2.7-17.1-4.1-25.7C1814.7,1,1817.3,1,1820,1z"/>
		<path class="st2" d="M1781,1c-2.3,7.9-4.1,16.1-7,23.8c-2.1,5.6,3.6,17.7,11.5,20.2c0.6,0.2,1.2,0.4,2,0.6
			c-3.4,1.8-9.2-0.2-12.3-4.1c-5.2-6.7-6.1-14-3.6-22.1c1.8-6,2.9-12.2,4.3-18.3C1777.7,1,1779.3,1,1781,1z"/>
		<path class="st2" d="M1803,1c1.5,7,3.3,14,4.3,21.1c0.6,3.9,0.1,8.1-0.6,12.1c-0.2,1.1-2.8,1.9-4.3,2.8c-0.3-0.4-0.6-0.8-0.9-1.2
			c0.7-1,1.4-2,2-3c2.6-4.1,2.8-7.5-1.1-11.3c-2-2-2.7-5.9-2.8-9c-0.2-3.8,0.9-7.7,1.4-11.5C1801.7,1,1802.3,1,1803,1z"/>
		<path class="st0" d="M226,1c-0.9,1.5-1.9,3.1-2.8,4.6c-0.3-0.1-0.7-0.3-1-0.4c-0.1-1.4-0.1-2.8-0.2-4.2C223.3,1,224.7,1,226,1z"/>
		<path class="st0" d="M263,1c-0.2,0.9-0.4,1.7-0.6,2.6c-0.3,0-0.5,0-0.8,0c-0.2-0.8-0.4-1.7-0.6-2.5C261.7,1,262.3,1,263,1z"/>
		<path class="st2" d="M1641,1c-1.3,0-2.7,0-4,0C1638.3,1,1639.7,1,1641,1z"/>
		<path class="st2" d="M1148.1,251.6c-5.3,0.9-9.8,1.9-14.3,2.3c-9.4,0.9-18.7,1.5-28.1,2c-4.9,0.3-7.7-2.7-9.9-6.7
			C1103.2,246.5,1145.3,247.7,1148.1,251.6z"/>
		<path class="st2" d="M1282.8,451.7c1.9-0.6,3.1-1,4.5-1.5c2,6.4,7.5,4.3,12.2,5.1c-1.9,5.6,1.7,7.3,5.9,9.1c-9.2,0-18.4,0-28.8,0
			C1280.9,460.9,1289,459.7,1282.8,451.7z"/>
		<path class="st2" d="M1308.6,369.7c4.1-4.3,9-2.5,13.8-1.5c0.7,0.1,1.4,1.3,1.5,2.1c0.5,3.4,0.9,6.8,1.3,10.3c-1.7,1-3.4,2-6,3.6
			C1315.8,379.6,1312.3,374.9,1308.6,369.7z"/>
		<path class="st2" d="M1578.8,327.4c18.7,0,37.5,0,56.2,0c0.2,0.4,0.4,0.8,0.5,1.2c-1.8,0.7-3.7,2.2-5.5,2.1
			c-13-0.4-26.1-1.2-39.1-1.7c-4.1-0.2-8.2,0-12.2,0C1578.8,328.5,1578.8,327.9,1578.8,327.4z"/>
		<path class="st2" d="M1402.9,464.3c-18.1,2-36.3,2-54.5,0C1366.5,464.3,1384.7,464.3,1402.9,464.3z"/>
		<path class="st2" d="M1635.3,338c1.3-0.3,2.6-1,3.8-1c11.5-0.1,23-0.1,34.5,0.1c1.5,0,3,1.4,3.7,2.8c-13.9,0-27.9,0-41.8,0
			C1635.5,339.3,1635.4,338.7,1635.3,338z"/>
		<path class="st2" d="M1118.6,447.2c3.2-6,15.8-6.4,20-1.5C1132,446.2,1125.8,446.7,1118.6,447.2z"/>
		<path class="st2" d="M1103,464.2c-11.1,0-22.1,0-33.2,0c0-0.4,0-0.8,0-1.2c11.1,0,22.1,0,33.2,0C1103,463.4,1103,463.8,1103,464.2
			z"/>
		<path class="st2" d="M1667.2,196.4c-7.8,0-15.7,0-23.8,0C1646,193.5,1662.4,192.9,1667.2,196.4z"/>
		<path class="st2" d="M1158.9,246.2c4.9,0,9-0.1,13.2,0.1c0.5,0,1.2,1,1.5,1.7c0.1,0.4-0.5,1.2-0.9,1.5
			C1170.1,251.2,1162.1,249.6,1158.9,246.2z"/>
		<path class="st2" d="M1408,463.4c8.3,0,16.5,0,24.8,0c0,0.3,0,0.5,0,0.8c-8.3,0-16.5,0-24.8,0C1408,463.9,1408,463.6,1408,463.4z"
			/>
		<path class="st2" d="M1015.7,369.4c5.8,0,11.5,0,17.3,0c0,0.4,0,0.7,0,1.1c-5.8,0-11.6,0-17.3,0
			C1015.7,370.1,1015.7,369.8,1015.7,369.4z"/>
		<path class="st2" d="M1894.4,448.2c-7.2,0-15.7,0-24.2,0c0-0.4,0-0.9,0-1.3C1878.7,447.4,1887.2,447.8,1894.4,448.2z"/>
		<path class="st2" d="M1175.9,234.4c-3.5,1.5-5.3,0.3-4.8-4.8c1.9,1,3.9,2,5.8,2.9C1176.6,233.2,1176.2,233.8,1175.9,234.4z"/>
		<path class="st2" d="M1036.1,367.6c4.3,0,8.6,0,12.9,0c0,0.3,0,0.7,0,1c-4.3,0-8.7,0-13,0C1036,368.2,1036,367.9,1036.1,367.6z"/>
		<path class="st2" d="M1349.8,193.8c1.9-1.4,3-2.7,3.8-2.6c1.1,0.2,2.2,1.4,3.2,2.1c-0.8,0.9-1.6,2.3-2.5,2.4
			C1353.3,195.9,1352,194.8,1349.8,193.8z"/>
		<path class="st2" d="M1493,455.8c-0.7,2.3-1.4,4.7-2.1,7c-0.5-0.2-1-0.3-1.5-0.5c0.7-2.3,1.4-4.5,2.1-6.8
			C1492,455.6,1492.5,455.7,1493,455.8z"/>
		<path class="st2" d="M1949.7,447.7c-1.8,0-3.7,0-5.5,0c0-0.2,0-0.3,0-0.5c1.9,0,3.7,0,5.6,0
			C1949.7,447.4,1949.7,447.6,1949.7,447.7z"/>
		<path class="st2" d="M1773.2,180.4c0,0.1-0.1,0.2-0.1,0.3c-0.1,0-0.3-0.1-0.4-0.1c0,0,0.1-0.2,0.1-0.3
			C1773,180.3,1773.1,180.4,1773.2,180.4z"/>
		<path class="st2" d="M1523.9,11.8c1.8,0.4,3.8,0.6,5.5,1.4c18,8.3,36.4,15.5,56.1,18.3c13.2,1.9,26.5,2.4,40.1,1.9
			c27.2-0.9,52.7-9.5,79.1-14.2c0.1,0,0.3,0.2,0.4,0.2c-7.4,5.9-68.2,17.1-91.6,17.7c-32.4,0.8-61.6-9.7-90.1-23.3
			C1523.5,13.1,1523.7,12.5,1523.9,11.8z"/>
		<path class="st0" d="M339.8,20.2c3.9,0.8,7.8,1.7,11.6,2.5c13.5,2.8,26.8,6.1,40.4,8.4c15.4,2.5,30.8,3.5,46.5,2.2
			c18.8-1.5,36.7-5.5,54.1-12.3c6-2.4,11.9-5.1,17.9-7.6c1.5-0.6,3.2-0.9,5.2-0.5c-11.9,7.5-24.8,12.6-38.1,16.8
			c-47,14.8-92.6,5.6-137.9-8.2C339.7,21,339.7,20.6,339.8,20.2z"/>
		<path class="st0" d="M18.8,11.9c3.4,1.2,7,2.2,10.3,3.8c18.1,8.8,37.1,14.5,56.9,16.9c10.4,1.3,21.1,0.2,31.6-0.4
			c7.3-0.4,14.5-1.8,22.2-2.8c-3.5,4.2-29.7,9-46.3,7.5c-26.7-2.4-51.8-10.5-75.3-23.1C18.4,13.1,18.6,12.5,18.8,11.9z"/>
		<path class="st0" d="M868.2,11.9c3.7,1.4,7.4,3,11.2,4.3c12,4.3,24.1,8.5,36.1,12.7c8.2,2.9,15.8-0.3,23.2-2.9
			c10.7-3.6,21-8.1,31.6-12.2c1.8-0.7,3.8-1.1,5.7-1.6c0.2,0.5,0.4,1,0.6,1.5c-1.9,1-3.7,2.1-5.7,2.9c-13.8,5.1-27.6,10.2-41.5,15.3
			c-7.5,2.8-14.8,0.6-21.8-1.9c-12.6-4.6-25.1-9.6-37.6-14.5c-1-0.4-1.8-1.2-2.6-1.9C867.7,13.1,868,12.5,868.2,11.9z"/>
		<path class="st2" d="M1938.1,14.4c-18.9,7.7-37.9,15.4-56.8,23.1c-0.3-0.7-0.6-1.4-0.9-2.1c18.3-9.3,37.9-15.5,56.6-23.8
			C1937.3,12.5,1937.7,13.5,1938.1,14.4z"/>
		<path class="st2" d="M2018,21c-7.4,2.3-14.6,4.8-22.1,6.9c-4.2,1.2-8.6,1.5-12.9,2.2c-0.1-0.5-0.2-0.9-0.3-1.4
			c3.4-0.8,6.7-1.8,10.1-2.5C2001.2,24.4,2009.6,22.7,2018,21C2018,21,2018,21,2018,21z"/>
		<path class="st2" d="M1617,18.5c5.4,0,10.8,0,16.3,0C1632.2,20.4,1624.6,20.8,1617,18.5z"/>
		<path class="st2" d="M1599.1,18.5c4.3,0,8.6,0,12.9,0c0,0.4,0,0.8-0.1,1.3c-4.3,0-8.7,0-13,0C1599,19.4,1599,19,1599.1,18.5z"/>
		<path class="st2" d="M1809.8,41.2c-1.7,5.6-6.1,4.7-10.1,5C1803.1,44.5,1806.5,42.8,1809.8,41.2z"/>
		<path class="st0" d="M265.6,21.4c-0.6-2-1.3-4.1-1.9-6.1c0.4-0.1,0.8-0.3,1.3-0.4c0.7,2,1.4,4.1,2.1,6.1
			C266.6,21.1,266.1,21.2,265.6,21.4z"/>
		<path class="st2" d="M1860.2,40.9c-1.7-0.2-3.4-0.4-5.2-0.6c0-0.3,0.1-0.6,0.1-0.9c1.7,0,3.4,0,5.1,0
			C1860.3,39.9,1860.3,40.4,1860.2,40.9z"/>
		<path class="st0" d="M147.6,21.4c-1.5,0.6-3,1.1-4.4,1.7c-0.2-0.4-0.3-0.8-0.5-1.2c1.5-0.6,2.9-1.2,4.4-1.8
			C147.3,20.5,147.5,21,147.6,21.4z"/>
		<path class="st2" d="M1790.9,46.7c1.4,0,2.8,0,4.2,0c0,0.3,0,0.6,0,0.9c-1.4,0-2.8,0-4.2,0C1790.9,47.3,1790.9,47,1790.9,46.7z"/>
		<path class="st2" d="M1624.6,28.9c-2.1,0-4.1,0-6.2,0c0-0.2,0-0.3,0-0.5c2.1,0,4.3,0,6.4,0C1624.7,28.5,1624.7,28.7,1624.6,28.9z"
			/>
		<path class="st0" d="M235.1,20.8c0.4-0.8,0.9-1.6,1.3-2.4c0.3,0.1,0.5,0.2,0.8,0.3c-0.4,0.9-0.8,1.8-1.2,2.7
			C235.8,21.2,235.4,21,235.1,20.8z"/>
		<path class="st2" d="M2018,21c0.3-0.2,0.7-0.5,1-0.7C2018.7,20.5,2018.3,20.8,2018,21C2018,21,2018,21,2018,21z"/>
		<path class="st2" d="M1655,25c0.1-0.1,0.1-0.2,0.2-0.4C1655.1,24.8,1655.1,24.9,1655,25C1655,25,1655,25,1655,25z"/>
		<path class="st2" d="M1655,25c-0.1,0.1-0.1,0.2-0.2,0.4C1654.9,25.2,1654.9,25.1,1655,25C1655,25,1655,25,1655,25z"/>
		<path class="st0" d="M176.3,177.3c-1.5,0.9-3.1,2.7-4.5,2.5c-1.7-0.2-3.1-2.1-4.7-3.2c1.4-1.2,2.6-3.2,4.1-3.3
			c1.6-0.1,3.4,1.4,5.1,2.3C176.3,176.1,176.3,176.7,176.3,177.3z"/>
	</g>
</g>
</svg>
